<svg version="1.1" xmlns="http://www.w3.org/2000/svg" xmlns:xlink="http://www.w3.org/1999/xlink" width="1192.8" height="975"><defs><linearGradient id="XACJllDOGQVO" x1="-669.5114715027444px" x2="-416.8114707874869px" y1="750.485559435694px" y2="417.28555872043864px" gradientUnits="userSpaceOnUse"><stop offset="0" stop-color="rgb(211,211,211)" stop-opacity="1"/><stop offset="1" stop-color="rgb(211,211,211)" stop-opacity="1"/></linearGradient><linearGradient id="TzrNfRbkeJIq" x1="-40.31147078748688px" x2="-140.31147078748688px" y1="1008.9855608662064px" y2="458.78555872043864px" gradientUnits="userSpaceOnUse"><stop offset="0" stop-color="rgb(211,211,211)" stop-opacity="1"/><stop offset="1" stop-color="rgb(211,211,211)" stop-opacity="1"/></linearGradient><linearGradient id="gHsAbFmzTKdJ" x1="-943.5114715027444px" x2="-140.31147078748688px" y1="836.9855601509496px" y2="458.78555872043864px" gradientUnits="userSpaceOnUse"><stop offset="0" stop-color="rgb(211,211,211)" stop-opacity="1"/><stop offset="1" stop-color="rgb(211,211,211)" stop-opacity="1"/></linearGradient><linearGradient id="TMSIxablnPWT" x1="-943.5114715027444px" x2="-140.31147078748688px" y1="1102.9855615814613px" y2="325.7855580051829px" gradientUnits="userSpaceOnUse"><stop offset="0" stop-color="rgb(211,211,211)" stop-opacity="1"/><stop offset="1" stop-color="rgb(211,211,211)" stop-opacity="1"/></linearGradient><linearGradient id="oDGkKitBInxm" x1="3346.0885306430246px" x2="3749.0885313582785px" y1="-915.6144441405836px" y2="-1572.8144462863515px" gradientUnits="userSpaceOnUse"><stop offset="0" stop-color="rgb(211,211,211)" stop-opacity="1"/><stop offset="1" stop-color="rgb(29,122,218)" stop-opacity="1"/></linearGradient><linearGradient id="NRhVOxRAEIbE" x1="3346.0885306430246px" x2="3749.0885313582785px" y1="-915.6144441405836px" y2="-1572.8144462863515px" gradientUnits="userSpaceOnUse"><stop offset="0" stop-color="rgb(211,211,211)" stop-opacity="1"/><stop offset="1" stop-color="rgb(29,122,218)" stop-opacity="1"/></linearGradient><linearGradient id="CfbgVtrlFPxr" x1="3246.0885306430246px" x2="3749.0885313582785px" y1="-1089.6144448558393px" y2="-1572.8144462863515px" gradientUnits="userSpaceOnUse"><stop offset="0" stop-color="rgb(211,211,211)" stop-opacity="1"/><stop offset="1" stop-color="rgb(29,122,218)" stop-opacity="1"/></linearGradient><linearGradient id="kMuiTggsbuDv" x1="3246.0885306430246px" x2="3749.0885313582785px" y1="-1089.6144448558393px" y2="-1572.8144462863515px" gradientUnits="userSpaceOnUse"><stop offset="0" stop-color="rgb(211,211,211)" stop-opacity="1"/><stop offset="1" stop-color="rgb(29,122,218)" stop-opacity="1"/></linearGradient><linearGradient id="UgEPafZugJBC" x1="1734.3885299277686px" x2="1766.388529927768px" y1="-1248.3144448558385px" y2="-1248.3144448558385px" gradientUnits="userSpaceOnUse"><stop offset="0" stop-color="rgb(211,211,211)" stop-opacity="1"/><stop offset="1" stop-color="rgb(211,211,211)" stop-opacity="1"/></linearGradient><linearGradient id="QGFNDuxJuTAl" x1="-943.511471502745px" x2="-1043.5114715027446px" y1="-1159.3144441405827px" y2="-1572.8144462863506px" gradientUnits="userSpaceOnUse"><stop offset="0" stop-color="rgb(211,211,211)" stop-opacity="1"/><stop offset="1" stop-color="rgb(29,122,218)" stop-opacity="1"/></linearGradient><linearGradient id="FgHgLTcqMlPH" x1="-943.511471502745px" x2="-1043.5114715027446px" y1="-1159.3144441405827px" y2="-1572.8144462863506px" gradientUnits="userSpaceOnUse"><stop offset="0" stop-color="rgb(211,211,211)" stop-opacity="1"/><stop offset="1" stop-color="rgb(29,122,218)" stop-opacity="1"/></linearGradient><linearGradient id="JNUDyOnvbtWv" x1="1861.088530643025px" x2="2664.28853135828px" y1="1175.1855608662063px" y2="325.7855580051835px" gradientUnits="userSpaceOnUse"><stop offset="0" stop-color="rgb(211,211,211)" stop-opacity="1"/><stop offset="1" stop-color="rgb(211,211,211)" stop-opacity="1"/></linearGradient><linearGradient id="ShvJwCTUVxJD" x1="1258.0885299277693px" x2="1861.088530643025px" y1="575.985558720439px" y2="325.7855580051835px" gradientUnits="userSpaceOnUse"><stop offset="0" stop-color="rgb(220,71,125)" stop-opacity="1"/><stop offset="1" stop-color="rgb(220,71,125)" stop-opacity="1"/></linearGradient><linearGradient id="xFwMQmLlIqTw" x1="2061.2885306430244px" x2="2664.28853135828px" y1="575.985558720439px" y2="325.7855580051835px" gradientUnits="userSpaceOnUse"><stop offset="0" stop-color="rgb(211,211,211)" stop-opacity="1"/><stop offset="1" stop-color="rgb(211,211,211)" stop-opacity="1"/></linearGradient><linearGradient id="fmOMyVigibwn" x1="1534.5885299277693px" x2="2387.78853135828px" y1="1216.6855608662063px" y2="284.2855580051835px" gradientUnits="userSpaceOnUse"><stop offset="0" stop-color="rgb(211,211,211)" stop-opacity="1"/><stop offset="1" stop-color="rgb(211,211,211)" stop-opacity="1"/></linearGradient></defs><g transform="translate(325.80229430054897,392.9628892572703) scale(0.2,0.2)"><path fill="rgb(244,236,255)" stroke="rgb(255,255,255)" paint-order="fill stroke markers" d=" M 1352.7885299277668 -1962.8144462863515 L 4324.5885313582785 -1962.8144462863515 L 4324.5885313582785 -1962.8144462863515 A 8 8 0 0 1 4332.5885313582785 -1954.8144462863515 L 4332.5885313582785 2899.4855666597728 L 4332.5885313582785 2899.4855666597728 A 8 8 0 0 1 4324.5885313582785 2907.4855666597728 L -1619.0114715027448 2907.4855666597728 L -1619.0114715027448 2907.4855666597728 A 8 8 0 0 1 -1627.0114715027448 2899.4855666597728 L -1627.0114715027448 -1954.8144462863515 L -1627.0114715027448 -1954.8144462863515 A 8 8 0 0 1 -1619.0114715027448 -1962.8144462863515 L 1352.7885299277668 -1962.8144462863515 Z" fill-opacity="1" stroke-opacity="1" stroke-miterlimit="10" stroke-width="2"/><text fill="rgb(0,0,0)" stroke="none" font-family="Avenir, Helvetica, Arial, sans-serif" font-size="32px" font-style="normal" font-weight="bold" text-decoration="normal" x="1352.7885299277668" y="-1887.8144462863515" text-anchor="middle" dominant-baseline="text-after-edge" fill-opacity="1">.</text><path fill="rgb(255,255,255)" stroke="rgb(132,80,186)" paint-order="fill stroke markers" d=" M 1931.038530607262 37.28555800518325 L 3092.78853135828 37.28555800518325 L 3092.78853135828 37.28555800518325 A 8 8 0 0 1 3100.78853135828 45.28555800518325 L 3100.78853135828 2693.4855666597728 L 3100.78853135828 2693.4855666597728 A 8 8 0 0 1 3092.78853135828 2701.4855666597728 L 769.2885298562437 2701.4855666597728 L 769.2885298562437 2701.4855666597728 A 8 8 0 0 1 761.2885298562437 2693.4855666597728 L 761.2885298562437 45.28555800518325 L 761.2885298562437 45.28555800518325 A 8 8 0 0 1 769.2885298562437 37.28555800518325 L 1931.038530607262 37.28555800518325 Z" fill-opacity="1" stroke-opacity="1" stroke-miterlimit="10" stroke-width="10"/><text fill="rgb(132,80,186)" stroke="none" font-family="Avenir, Helvetica, Arial, sans-serif" font-size="32px" font-style="normal" font-weight="bold" text-decoration="normal" x="1931.038530607262" y="97.28555800518325" text-anchor="middle" dominant-baseline="text-after-edge" fill-opacity="1">kubernetes</text><path fill="rgb(255,255,255)" stroke="rgb(132,80,186)" paint-order="fill stroke markers" d=" M -456.2364711451156 37.28555800518279 L 459.53852921251314 37.28555800518279 L 459.53852921251314 37.28555800518279 A 8 8 0 0 1 467.53852921251314 45.28555800518279 L 467.53852921251314 1499.3355615814621 L 467.53852921251314 1499.3355615814621 A 8 8 0 0 1 459.53852921251314 1507.3355615814621 L -1372.0114715027444 1507.3355615814621 L -1372.0114715027444 1507.3355615814621 A 8 8 0 0 1 -1380.0114715027444 1499.3355615814621 L -1380.0114715027444 45.28555800518279 L -1380.0114715027444 45.28555800518279 A 8 8 0 0 1 -1372.0114715027444 37.28555800518279 L -456.2364711451156 37.28555800518279 Z" fill-opacity="1" stroke-opacity="1" stroke-miterlimit="10" stroke-width="10"/><text fill="rgb(132,80,186)" stroke="none" font-family="Avenir, Helvetica, Arial, sans-serif" font-size="32px" font-style="normal" font-weight="bold" text-decoration="normal" x="-456.2364711451156" y="97.28555800518279" text-anchor="middle" dominant-baseline="text-after-edge" fill-opacity="1">kubernetes-addons</text><path fill="rgb(255,255,255)" stroke="rgb(132,80,186)" paint-order="fill stroke markers" d=" M 3447.5885310006515 -1756.8144462863515 L 4118.5885313582785 -1756.8144462863515 L 4118.5885313582785 -1756.8144462863515 A 8 8 0 0 1 4126.5885313582785 -1748.8144462863515 L 4126.5885313582785 -280.71444271007203 L 4126.5885313582785 -280.71444271007203 A 8 8 0 0 1 4118.5885313582785 -272.71444271007203 L 2776.5885306430246 -272.71444271007203 L 2776.5885306430246 -272.71444271007203 A 8 8 0 0 1 2768.5885306430246 -280.71444271007203 L 2768.5885306430246 -1748.8144462863515 L 2768.5885306430246 -1748.8144462863515 A 8 8 0 0 1 2776.5885306430246 -1756.8144462863515 L 3447.5885310006515 -1756.8144462863515 Z" fill-opacity="1" stroke-opacity="1" stroke-miterlimit="10" stroke-width="10"/><text fill="rgb(132,80,186)" stroke="none" font-family="Avenir, Helvetica, Arial, sans-serif" font-size="32px" font-style="normal" font-weight="bold" text-decoration="normal" x="3447.5885310006515" y="-1696.8144462863515" text-anchor="middle" dominant-baseline="text-after-edge" fill-opacity="1">talos-k8s</text><path fill="rgb(255,255,255)" stroke="rgb(132,80,186)" paint-order="fill stroke markers" d=" M 1750.3885299277683 -1756.8144462863506 L 2529.888529927768 -1756.8144462863506 L 2529.888529927768 -1756.8144462863506 A 8 8 0 0 1 2537.888529927768 -1748.8144462863506 L 2537.888529927768 -996.3144448558384 L 2537.888529927768 -996.3144448558384 A 8 8 0 0 1 2529.888529927768 -988.3144448558384 L 970.8885299277686 -988.3144448558384 L 970.8885299277686 -988.3144448558384 A 8 8 0 0 1 962.8885299277686 -996.3144448558384 L 962.8885299277686 -1748.8144462863506 L 962.8885299277686 -1748.8144462863506 A 8 8 0 0 1 970.8885299277686 -1756.8144462863506 L 1750.3885299277683 -1756.8144462863506 Z" fill-opacity="1" stroke-opacity="1" stroke-miterlimit="10" stroke-width="10"/><text fill="rgb(132,80,186)" stroke="none" font-family="Avenir, Helvetica, Arial, sans-serif" font-size="32px" font-style="normal" font-weight="bold" text-decoration="normal" x="1750.3885299277683" y="-1696.8144462863506" text-anchor="middle" dominant-baseline="text-after-edge" fill-opacity="1">talos-patch</text><path fill="rgb(255,255,255)" stroke="rgb(132,80,186)" paint-order="fill stroke markers" d=" M -965.5114715027448 -1756.8144462863506 L -518.011471502745 -1756.8144462863506 L -518.011471502745 -1756.8144462863506 A 8 8 0 0 1 -510.01147150274505 -1748.8144462863506 L -510.01147150274505 -929.8144441405826 L -510.01147150274505 -929.8144441405826 A 8 8 0 0 1 -518.011471502745 -921.8144441405826 L -1413.0114715027446 -921.8144441405826 L -1413.0114715027446 -921.8144441405826 A 8 8 0 0 1 -1421.0114715027446 -929.8144441405826 L -1421.0114715027446 -1748.8144462863506 L -1421.0114715027446 -1748.8144462863506 A 8 8 0 0 1 -1413.0114715027446 -1756.8144462863506 L -965.5114715027448 -1756.8144462863506 Z" fill-opacity="1" stroke-opacity="1" stroke-miterlimit="10" stroke-width="10"/><text fill="rgb(132,80,186)" stroke="none" font-family="Avenir, Helvetica, Arial, sans-serif" font-size="32px" font-style="normal" font-weight="bold" text-decoration="normal" x="-965.5114715027448" y="-1696.8144462863506" text-anchor="middle" dominant-baseline="text-after-edge" fill-opacity="1">vm</text><path fill="rgb(255,255,255)" stroke="rgb(132,80,186)" paint-order="fill stroke markers" d=" M 234.1885292125118 -1756.8144462863506 L 683.1885292125119 -1756.8144462863506 L 683.1885292125119 -1756.8144462863506 A 8 8 0 0 1 691.1885292125119 -1748.8144462863506 L 691.1885292125119 -798.8144434253269 L 691.1885292125119 -798.8144434253269 A 8 8 0 0 1 683.1885292125119 -790.8144434253269 L -214.81147078748825 -790.8144434253269 L -214.81147078748825 -790.8144434253269 A 8 8 0 0 1 -222.81147078748825 -798.8144434253269 L -222.81147078748825 -1748.8144462863506 L -222.81147078748825 -1748.8144462863506 A 8 8 0 0 1 -214.81147078748825 -1756.8144462863506 L 234.1885292125118 -1756.8144462863506 Z" fill-opacity="1" stroke-opacity="1" stroke-miterlimit="10" stroke-width="10"/><text fill="rgb(132,80,186)" stroke="none" font-family="Avenir, Helvetica, Arial, sans-serif" font-size="32px" font-style="normal" font-weight="bold" text-decoration="normal" x="234.1885292125118" y="-1696.8144462863506" text-anchor="middle" dominant-baseline="text-after-edge" fill-opacity="1">vm-templates</text><path fill="rgb(255,255,255)" stroke="rgb(0,0,0)" paint-order="fill stroke markers" d=" M 1861.088530643025 186.28555800518347 L 2186.088530643025 186.28555800518347 L 2186.088530643025 186.28555800518347 A 8 8 0 0 1 2194.088530643025 194.28555800518347 L 2194.088530643025 374.2855580051835 L 2194.088530643025 374.2855580051835 A 8 8 0 0 1 2186.088530643025 382.2855580051835 L 1536.088530643025 382.2855580051835 L 1536.088530643025 382.2855580051835 A 8 8 0 0 1 1528.088530643025 374.2855580051835 L 1528.088530643025 194.28555800518347 L 1528.088530643025 194.28555800518347 A 8 8 0 0 1 1536.088530643025 186.28555800518347 L 1861.088530643025 186.28555800518347 Z" fill-opacity="1" stroke-opacity="1" stroke-miterlimit="10" stroke-width="5"/><rect fill="rgb(255,255,255)" stroke="none" x="1797.588530643025" y="137.28555800518347" width="127" height="96" fill-opacity="1"/><text fill="rgb(0,0,0)" stroke="none" font-family="Avenir, Helvetica, Arial, sans-serif" font-size="32px" font-style="normal" font-weight="bold" text-decoration="normal" x="1861.088530643025" y="201.28555800518347" text-anchor="middle" dominant-baseline="text-after-edge" fill-opacity="1">http</text><path fill="rgb(255,255,255)" stroke="rgb(0,0,0)" paint-order="fill stroke markers" d=" M 1559.5885302853972 1058.3855607946807 L 2246.3885307145506 1058.3855607946807 L 2246.3885307145506 1058.3855607946807 A 8 8 0 0 1 2254.3885307145506 1066.3855607946807 L 2254.3885307145506 2589.9855666597728 L 2254.3885307145506 2589.9855666597728 A 8 8 0 0 1 2246.3885307145506 2597.9855666597728 L 872.7885298562437 2597.9855666597728 L 872.7885298562437 2597.9855666597728 A 8 8 0 0 1 864.7885298562437 2589.9855666597728 L 864.7885298562437 1066.3855607946807 L 864.7885298562437 1066.3855607946807 A 8 8 0 0 1 872.7885298562437 1058.3855607946807 L 1559.5885302853972 1058.3855607946807 Z" fill-opacity="1" stroke-opacity="1" stroke-miterlimit="10" stroke-width="5"/><rect fill="rgb(255,255,255)" stroke="none" x="1400.5885302853972" y="1009.3855607946807" width="318" height="96" fill-opacity="1"/><text fill="rgb(0,0,0)" stroke="none" font-family="Avenir, Helvetica, Arial, sans-serif" font-size="32px" font-style="normal" font-weight="bold" text-decoration="normal" x="1559.5885302853972" y="1073.3855607946807" text-anchor="middle" dominant-baseline="text-after-edge" fill-opacity="1">kubectl_manifest</text><path fill="rgb(255,255,255)" stroke="rgb(0,0,0)" paint-order="fill stroke markers" d=" M 2061.2885306430244 519.485558720439 L 2386.2885306430244 519.485558720439 L 2386.2885306430244 519.485558720439 A 8 8 0 0 1 2394.2885306430244 527.485558720439 L 2394.2885306430244 973.4855601509505 L 2394.2885306430244 973.4855601509505 A 8 8 0 0 1 2386.2885306430244 981.4855601509505 L 1736.2885306430244 981.4855601509505 L 1736.2885306430244 981.4855601509505 A 8 8 0 0 1 1728.2885306430244 973.4855601509505 L 1728.2885306430244 527.485558720439 L 1728.2885306430244 527.485558720439 A 8 8 0 0 1 1736.2885306430244 519.485558720439 L 2061.2885306430244 519.485558720439 Z" fill-opacity="1" stroke-opacity="1" stroke-miterlimit="10" stroke-width="5"/><rect fill="rgb(255,255,255)" stroke="none" x="1931.2885306430244" y="470.48555872043903" width="260" height="96" fill-opacity="1"/><text fill="rgb(0,0,0)" stroke="none" font-family="Avenir, Helvetica, Arial, sans-serif" font-size="32px" font-style="normal" font-weight="bold" text-decoration="normal" x="2061.2885306430244" y="534.485558720439" text-anchor="middle" dominant-baseline="text-after-edge" fill-opacity="1">helm_release</text><path fill="rgb(255,255,255)" stroke="rgb(0,0,0)" paint-order="fill stroke markers" d=" M 2664.28853135828 186.28555800518347 L 2989.28853135828 186.28555800518347 L 2989.28853135828 186.28555800518347 A 8 8 0 0 1 2997.28853135828 194.28555800518347 L 2997.28853135828 374.2855580051835 L 2997.28853135828 374.2855580051835 A 8 8 0 0 1 2989.28853135828 382.2855580051835 L 2339.28853135828 382.2855580051835 L 2339.28853135828 382.2855580051835 A 8 8 0 0 1 2331.28853135828 374.2855580051835 L 2331.28853135828 194.28555800518347 L 2331.28853135828 194.28555800518347 A 8 8 0 0 1 2339.28853135828 186.28555800518347 L 2664.28853135828 186.28555800518347 Z" fill-opacity="1" stroke-opacity="1" stroke-miterlimit="10" stroke-width="5"/><rect fill="rgb(255,255,255)" stroke="none" x="2456.28853135828" y="137.28555800518347" width="416" height="96" fill-opacity="1"/><text fill="rgb(0,0,0)" stroke="none" font-family="Avenir, Helvetica, Arial, sans-serif" font-size="32px" font-style="normal" font-weight="bold" text-decoration="normal" x="2664.28853135828" y="201.28555800518347" text-anchor="middle" dominant-baseline="text-after-edge" fill-opacity="1">kubernetes_namespace</text><path fill="rgb(255,255,255)" stroke="rgb(0,0,0)" paint-order="fill stroke markers" d=" M 1258.0885299277693 519.485558720439 L 1583.0885299277693 519.485558720439 L 1583.0885299277693 519.485558720439 A 8 8 0 0 1 1591.0885299277693 527.485558720439 L 1591.0885299277693 707.485558720439 L 1591.0885299277693 707.485558720439 A 8 8 0 0 1 1583.0885299277693 715.485558720439 L 933.0885299277693 715.485558720439 L 933.0885299277693 715.485558720439 A 8 8 0 0 1 925.0885299277693 707.485558720439 L 925.0885299277693 527.485558720439 L 925.0885299277693 527.485558720439 A 8 8 0 0 1 933.0885299277693 519.485558720439 L 1258.0885299277693 519.485558720439 Z" fill-opacity="1" stroke-opacity="1" stroke-miterlimit="10" stroke-width="5"/><rect fill="rgb(255,255,255)" stroke="none" x="1049.5885299277693" y="470.48555872043903" width="417" height="96" fill-opacity="1"/><text fill="rgb(0,0,0)" stroke="none" font-family="Avenir, Helvetica, Arial, sans-serif" font-size="32px" font-style="normal" font-weight="bold" text-decoration="normal" x="1258.0885299277693" y="534.485558720439" text-anchor="middle" dominant-baseline="text-after-edge" fill-opacity="1">kubectl_file_documents</text><path fill="rgb(255,255,255)" stroke="rgb(0,0,0)" paint-order="fill stroke markers" d=" M -61.06147078748688 639.6355594356942 L 356.03852921251314 639.6355594356942 L 356.03852921251314 639.6355594356942 A 8 8 0 0 1 364.03852921251314 647.6355594356942 L 364.03852921251314 1395.8355615814621 L 364.03852921251314 1395.8355615814621 A 8 8 0 0 1 356.03852921251314 1403.8355615814621 L -478.1614707874869 1403.8355615814621 L -478.1614707874869 1403.8355615814621 A 8 8 0 0 1 -486.1614707874869 1395.8355615814621 L -486.1614707874869 647.6355594356942 L -486.1614707874869 647.6355594356942 A 8 8 0 0 1 -478.1614707874869 639.6355594356942 L -61.06147078748688 639.6355594356942 Z" fill-opacity="1" stroke-opacity="1" stroke-miterlimit="10" stroke-width="5"/><rect fill="rgb(255,255,255)" stroke="none" x="-220.06147078748688" y="590.6355594356941" width="318" height="96" fill-opacity="1"/><text fill="rgb(0,0,0)" stroke="none" font-family="Avenir, Helvetica, Arial, sans-serif" font-size="32px" font-style="normal" font-weight="bold" text-decoration="normal" x="-61.06147078748688" y="654.6355594356941" text-anchor="middle" dominant-baseline="text-after-edge" fill-opacity="1">kubectl_manifest</text><path fill="rgb(255,255,255)" stroke="rgb(0,0,0)" paint-order="fill stroke markers" d=" M -943.5114715027444 186.2855580051829 L -618.5114715027444 186.2855580051829 L -618.5114715027444 186.2855580051829 A 8 8 0 0 1 -610.5114715027444 194.2855580051829 L -610.5114715027444 374.2855580051829 L -610.5114715027444 374.2855580051829 A 8 8 0 0 1 -618.5114715027444 382.2855580051829 L -1268.5114715027444 382.2855580051829 L -1268.5114715027444 382.2855580051829 A 8 8 0 0 1 -1276.5114715027444 374.2855580051829 L -1276.5114715027444 194.2855580051829 L -1276.5114715027444 194.2855580051829 A 8 8 0 0 1 -1268.5114715027444 186.2855580051829 L -943.5114715027444 186.2855580051829 Z" fill-opacity="1" stroke-opacity="1" stroke-miterlimit="10" stroke-width="5"/><rect fill="rgb(255,255,255)" stroke="none" x="-1163.0114715027444" y="137.2855580051829" width="439" height="96" fill-opacity="1"/><text fill="rgb(0,0,0)" stroke="none" font-family="Avenir, Helvetica, Arial, sans-serif" font-size="32px" font-style="normal" font-weight="bold" text-decoration="normal" x="-943.5114715027444" y="201.2855580051829" text-anchor="middle" dominant-baseline="text-after-edge" fill-opacity="1">kubectl_path_documents</text><path fill="rgb(255,255,255)" stroke="rgb(0,0,0)" paint-order="fill stroke markers" d=" M -140.31147078748688 186.2855580051829 L 184.68852921251312 186.2855580051829 L 184.68852921251312 186.2855580051829 A 8 8 0 0 1 192.68852921251312 194.2855580051829 L 192.68852921251312 507.28555872043864 L 192.68852921251312 507.28555872043864 A 8 8 0 0 1 184.68852921251312 515.2855587204386 L -465.3114707874869 515.2855587204386 L -465.3114707874869 515.2855587204386 A 8 8 0 0 1 -473.3114707874869 507.28555872043864 L -473.3114707874869 194.2855580051829 L -473.3114707874869 194.2855580051829 A 8 8 0 0 1 -465.3114707874869 186.2855580051829 L -140.31147078748688 186.2855580051829 Z" fill-opacity="1" stroke-opacity="1" stroke-miterlimit="10" stroke-width="5"/><rect fill="rgb(255,255,255)" stroke="none" x="-348.3114707874869" y="137.2855580051829" width="416" height="96" fill-opacity="1"/><text fill="rgb(0,0,0)" stroke="none" font-family="Avenir, Helvetica, Arial, sans-serif" font-size="32px" font-style="normal" font-weight="bold" text-decoration="normal" x="-140.31147078748688" y="201.2855580051829" text-anchor="middle" dominant-baseline="text-after-edge" fill-opacity="1">kubernetes_namespace</text><path fill="rgb(255,255,255)" stroke="rgb(0,0,0)" paint-order="fill stroke markers" d=" M -943.5114715027444 654.9855594356941 L -618.5114715027444 654.9855594356941 L -618.5114715027444 654.9855594356941 A 8 8 0 0 1 -610.5114715027444 662.9855594356941 L -610.5114715027444 1234.4855615814613 L -610.5114715027444 1234.4855615814613 A 8 8 0 0 1 -618.5114715027444 1242.4855615814613 L -1268.5114715027444 1242.4855615814613 L -1268.5114715027444 1242.4855615814613 A 8 8 0 0 1 -1276.5114715027444 1234.4855615814613 L -1276.5114715027444 662.9855594356941 L -1276.5114715027444 662.9855594356941 A 8 8 0 0 1 -1268.5114715027444 654.9855594356941 L -943.5114715027444 654.9855594356941 Z" fill-opacity="1" stroke-opacity="1" stroke-miterlimit="10" stroke-width="5"/><rect fill="rgb(255,255,255)" stroke="none" x="-1073.5114715027444" y="605.9855594356941" width="260" height="96" fill-opacity="1"/><text fill="rgb(0,0,0)" stroke="none" font-family="Avenir, Helvetica, Arial, sans-serif" font-size="32px" font-style="normal" font-weight="bold" text-decoration="normal" x="-943.5114715027444" y="669.9855594356941" text-anchor="middle" dominant-baseline="text-after-edge" fill-opacity="1">helm_release</text><path fill="rgb(255,255,255)" stroke="rgb(0,0,0)" paint-order="fill stroke markers" d=" M 3325.5885306430246 -1162.0144448558394 L 3745.9885306430247 -1162.0144448558394 L 3745.9885306430247 -1162.0144448558394 A 8 8 0 0 1 3753.9885306430247 -1154.0144448558394 L 3753.9885306430247 -384.21444271007215 L 3753.9885306430247 -384.21444271007215 A 8 8 0 0 1 3745.9885306430247 -376.21444271007215 L 2905.1885306430245 -376.21444271007215 L 2905.1885306430245 -376.21444271007215 A 8 8 0 0 1 2897.1885306430245 -384.21444271007215 L 2897.1885306430245 -1154.0144448558394 L 2897.1885306430245 -1154.0144448558394 A 8 8 0 0 1 2905.1885306430245 -1162.0144448558394 L 3325.5885306430246 -1162.0144448558394 Z" fill-opacity="1" stroke-opacity="1" stroke-miterlimit="10" stroke-width="5"/><rect fill="rgb(255,255,255)" stroke="none" x="3146.5885306430246" y="-1211.0144448558394" width="358" height="96" fill-opacity="1"/><text fill="rgb(0,0,0)" stroke="none" font-family="Avenir, Helvetica, Arial, sans-serif" font-size="32px" font-style="normal" font-weight="bold" text-decoration="normal" x="3325.5885306430246" y="-1147.0144448558394" text-anchor="middle" dominant-baseline="text-after-edge" fill-opacity="1">proxmox_vm_qemu</text><path fill="rgb(255,255,255)" stroke="rgb(0,0,0)" paint-order="fill stroke markers" d=" M 3246.0885306430246 -1479.314445571095 L 3571.0885306430246 -1479.314445571095 L 3571.0885306430246 -1479.314445571095 A 8 8 0 0 1 3579.0885306430246 -1471.314445571095 L 3579.0885306430246 -1291.314445571095 L 3579.0885306430246 -1291.314445571095 A 8 8 0 0 1 3571.0885306430246 -1283.314445571095 L 2921.0885306430246 -1283.314445571095 L 2921.0885306430246 -1283.314445571095 A 8 8 0 0 1 2913.0885306430246 -1291.314445571095 L 2913.0885306430246 -1471.314445571095 L 2913.0885306430246 -1471.314445571095 A 8 8 0 0 1 2921.0885306430246 -1479.314445571095 L 3246.0885306430246 -1479.314445571095 Z" fill-opacity="1" stroke-opacity="1" stroke-miterlimit="10" stroke-width="5"/><rect fill="rgb(255,255,255)" stroke="none" x="3115.5885306430246" y="-1528.314445571095" width="261" height="96" fill-opacity="1"/><text fill="rgb(0,0,0)" stroke="none" font-family="Avenir, Helvetica, Arial, sans-serif" font-size="32px" font-style="normal" font-weight="bold" text-decoration="normal" x="3246.0885306430246" y="-1464.314445571095" text-anchor="middle" dominant-baseline="text-after-edge" fill-opacity="1">null_resource</text><path fill="rgb(255,255,255)" stroke="rgb(0,0,0)" paint-order="fill stroke markers" d=" M 1750.3885299277683 -1537.8144455710942 L 2426.388529927768 -1537.8144455710942 L 2426.388529927768 -1537.8144455710942 A 8 8 0 0 1 2434.388529927768 -1529.8144455710942 L 2434.388529927768 -1099.8144448558385 L 2434.388529927768 -1099.8144448558385 A 8 8 0 0 1 2426.388529927768 -1091.8144448558385 L 1074.3885299277686 -1091.8144448558385 L 1074.3885299277686 -1091.8144448558385 A 8 8 0 0 1 1066.3885299277686 -1099.8144448558385 L 1066.3885299277686 -1529.8144455710942 L 1066.3885299277686 -1529.8144455710942 A 8 8 0 0 1 1074.3885299277686 -1537.8144455710942 L 1750.3885299277683 -1537.8144455710942 Z" fill-opacity="1" stroke-opacity="1" stroke-miterlimit="10" stroke-width="5"/><rect fill="rgb(255,255,255)" stroke="none" x="1619.8885299277683" y="-1586.8144455710942" width="261" height="96" fill-opacity="1"/><text fill="rgb(0,0,0)" stroke="none" font-family="Avenir, Helvetica, Arial, sans-serif" font-size="32px" font-style="normal" font-weight="bold" text-decoration="normal" x="1750.3885299277683" y="-1522.8144455710942" text-anchor="middle" dominant-baseline="text-after-edge" fill-opacity="1">null_resource</text><path fill="rgb(255,255,255)" stroke="rgb(0,0,0)" paint-order="fill stroke markers" d=" M -943.511471502745 -1343.3144448558385 L -621.511471502745 -1343.3144448558385 L -621.511471502745 -1343.3144448558385 A 8 8 0 0 1 -613.511471502745 -1335.3144448558385 L -613.511471502745 -1033.3144441405827 L -613.511471502745 -1033.3144441405827 A 8 8 0 0 1 -621.511471502745 -1025.3144441405827 L -1265.511471502745 -1025.3144441405827 L -1265.511471502745 -1025.3144441405827 A 8 8 0 0 1 -1273.511471502745 -1033.3144441405827 L -1273.511471502745 -1335.3144448558385 L -1273.511471502745 -1335.3144448558385 A 8 8 0 0 1 -1265.511471502745 -1343.3144448558385 L -943.511471502745 -1343.3144448558385 Z" fill-opacity="1" stroke-opacity="1" stroke-miterlimit="10" stroke-width="5"/><rect fill="rgb(255,255,255)" stroke="none" x="-1122.511471502745" y="-1392.3144448558385" width="358" height="96" fill-opacity="1"/><text fill="rgb(0,0,0)" stroke="none" font-family="Avenir, Helvetica, Arial, sans-serif" font-size="32px" font-style="normal" font-weight="bold" text-decoration="normal" x="-943.511471502745" y="-1328.3144448558385" text-anchor="middle" dominant-baseline="text-after-edge" fill-opacity="1">proxmox_vm_qemu</text><path fill="rgb(255,255,255)" stroke="rgb(0,0,0)" paint-order="fill stroke markers" d=" M 254.68852921251187 -1343.8144448558385 L 579.6885292125119 -1343.8144448558385 L 579.6885292125119 -1343.8144448558385 A 8 8 0 0 1 587.6885292125119 -1335.8144448558385 L 587.6885292125119 -902.314443425327 L 587.6885292125119 -902.314443425327 A 8 8 0 0 1 579.6885292125119 -894.314443425327 L -70.31147078748813 -894.314443425327 L -70.31147078748813 -894.314443425327 A 8 8 0 0 1 -78.31147078748813 -902.314443425327 L -78.31147078748813 -1335.8144448558385 L -78.31147078748813 -1335.8144448558385 A 8 8 0 0 1 -70.31147078748813 -1343.8144448558385 L 254.68852921251187 -1343.8144448558385 Z" fill-opacity="1" stroke-opacity="1" stroke-miterlimit="10" stroke-width="5"/><rect fill="rgb(255,255,255)" stroke="none" x="124.18852921251187" y="-1392.8144448558385" width="261" height="96" fill-opacity="1"/><text fill="rgb(0,0,0)" stroke="none" font-family="Avenir, Helvetica, Arial, sans-serif" font-size="32px" font-style="normal" font-weight="bold" text-decoration="normal" x="254.68852921251187" y="-1328.8144448558385" text-anchor="middle" dominant-baseline="text-after-edge" fill-opacity="1">null_resource</text><path fill="rgb(255,255,255)" stroke="rgb(0,0,0)" paint-order="fill stroke markers" d=" M 1358.088529927769 1351.6855615814625 L 1683.088529927769 1351.6855615814625 L 1683.088529927769 1351.6855615814625 A 8 8 0 0 1 1691.088529927769 1359.6855615814625 L 1691.088529927769 2470.685566588247 L 1691.088529927769 2470.685566588247 A 8 8 0 0 1 1683.088529927769 2478.685566588247 L 1033.088529927769 2478.685566588247 L 1033.088529927769 2478.685566588247 A 8 8 0 0 1 1025.088529927769 2470.685566588247 L 1025.088529927769 1359.6855615814625 L 1025.088529927769 1359.6855615814625 A 8 8 0 0 1 1033.088529927769 1351.6855615814625 L 1358.088529927769 1351.6855615814625 Z" fill-opacity="1" stroke-opacity="1" stroke-miterlimit="10" stroke-width="5"/><rect fill="rgb(255,255,255)" stroke="none" x="1196.088529927769" y="1302.6855615814625" width="324" height="96" fill-opacity="1"/><text fill="rgb(0,0,0)" stroke="none" font-family="Avenir, Helvetica, Arial, sans-serif" font-size="32px" font-style="normal" font-weight="bold" text-decoration="normal" x="1358.088529927769" y="1366.6855615814625" text-anchor="middle" dominant-baseline="text-after-edge" fill-opacity="1">kubelet-approver</text><path fill="rgb(255,255,255)" stroke="rgb(0,0,0)" paint-order="fill stroke markers" d=" M -40.31147078748688 1011.4855608662064 L 281.6885292125131 1011.4855608662064 L 281.6885292125131 1011.4855608662064 A 8 8 0 0 1 289.6885292125131 1019.4855608662064 L 289.6885292125131 1321.4855615814622 L 289.6885292125131 1321.4855615814622 A 8 8 0 0 1 281.6885292125131 1329.4855615814622 L -362.3114707874869 1329.4855615814622 L -362.3114707874869 1329.4855615814622 A 8 8 0 0 1 -370.3114707874869 1321.4855615814622 L -370.3114707874869 1019.4855608662064 L -370.3114707874869 1019.4855608662064 A 8 8 0 0 1 -362.3114707874869 1011.4855608662064 L -40.31147078748688 1011.4855608662064 Z" fill-opacity="1" stroke-opacity="1" stroke-miterlimit="10" stroke-width="5"/><rect fill="rgb(255,255,255)" stroke="none" x="-148.31147078748688" y="962.4855608662065" width="216" height="96" fill-opacity="1"/><text fill="rgb(0,0,0)" stroke="none" font-family="Avenir, Helvetica, Arial, sans-serif" font-size="32px" font-style="normal" font-weight="bold" text-decoration="normal" x="-40.31147078748688" y="1026.4855608662065" text-anchor="middle" dominant-baseline="text-after-edge" fill-opacity="1">elk-kibana</text><path fill="rgb(255,255,255)" stroke="rgb(0,0,0)" paint-order="fill stroke markers" d=" M 3346.0885306430246 -913.1144441405836 L 3671.0885306430246 -913.1144441405836 L 3671.0885306430246 -913.1144441405836 A 8 8 0 0 1 3679.0885306430246 -905.1144441405836 L 3679.0885306430246 -459.1144427100721 L 3679.0885306430246 -459.1144427100721 A 8 8 0 0 1 3671.0885306430246 -451.1144427100721 L 3021.0885306430246 -451.1144427100721 L 3021.0885306430246 -451.1144427100721 A 8 8 0 0 1 3013.0885306430246 -459.1144427100721 L 3013.0885306430246 -905.1144441405836 L 3013.0885306430246 -905.1144441405836 A 8 8 0 0 1 3021.0885306430246 -913.1144441405836 L 3346.0885306430246 -913.1144441405836 Z" fill-opacity="1" stroke-opacity="1" stroke-miterlimit="10" stroke-width="5"/><rect fill="rgb(255,255,255)" stroke="none" x="3141.5885306430246" y="-962.1144441405836" width="409" height="96" fill-opacity="1"/><text fill="rgb(0,0,0)" stroke="none" font-family="Avenir, Helvetica, Arial, sans-serif" font-size="32px" font-style="normal" font-weight="bold" text-decoration="normal" x="3346.0885306430246" y="-898.1144441405836" text-anchor="middle" dominant-baseline="text-after-edge" fill-opacity="1">kubernetes-worker_vm</text><path fill="none" stroke="url(#XACJllDOGQVO)" paint-order="fill stroke markers" d=" M -669.5114715027444 750.485559435694 L -543.1614711451157 750.485559435694 L -543.1614711451157 417.28555872043864 L -416.8114707874869 417.28555872043864" stroke-linejoin="round" stroke-miterlimit="10" stroke-width="10"/><path fill="none" stroke="url(#TzrNfRbkeJIq)" paint-order="fill stroke markers" d=" M -40.31147078748688 1008.9855608662064 L -40.31147078748688 733.8855597933225 L -140.31147078748688 733.8855597933225 L -140.31147078748688 458.78555872043864" stroke-linejoin="round" stroke-miterlimit="10" stroke-width="10"/><path fill="none" stroke="url(#gHsAbFmzTKdJ)" paint-order="fill stroke markers" d=" M -943.5114715027444 836.9855601509496 L -943.5114715027444 647.8855594356942 L -140.31147078748688 647.8855594356942 L -140.31147078748688 458.78555872043864" stroke-linejoin="round" stroke-miterlimit="10" stroke-width="10"/><path fill="none" stroke="url(#TMSIxablnPWT)" paint-order="fill stroke markers" d=" M -943.5114715027444 1102.9855615814613 L -943.5114715027444 714.385559793322 L -140.31147078748688 714.385559793322 L -140.31147078748688 325.7855580051829" stroke-linejoin="round" stroke-miterlimit="10" stroke-width="10"/><path fill="none" stroke="url(#oDGkKitBInxm)" paint-order="fill stroke markers" d=" M 3346.0885306430246 -915.6144441405836 L 3346.0885306430246 -1244.2144452134676 L 3749.0885313582785 -1244.2144452134676 L 3749.0885313582785 -1572.8144462863515" stroke-linejoin="round" stroke-miterlimit="10" stroke-width="10"/><path fill="none" stroke="url(#NRhVOxRAEIbE)" paint-order="fill stroke markers" d=" M 3346.0885306430246 -915.6144441405836 L 3346.0885306430246 -1244.2144452134676 L 3749.0885313582785 -1244.2144452134676 L 3749.0885313582785 -1572.8144462863515" stroke-linejoin="round" stroke-miterlimit="10" stroke-width="10"/><path fill="none" stroke="url(#CfbgVtrlFPxr)" paint-order="fill stroke markers" d=" M 3246.0885306430246 -1089.6144448558393 L 3246.0885306430246 -1331.2144455710954 L 3749.0885313582785 -1331.2144455710954 L 3749.0885313582785 -1572.8144462863515" stroke-linejoin="round" stroke-miterlimit="10" stroke-width="10"/><path fill="none" stroke="url(#kMuiTggsbuDv)" paint-order="fill stroke markers" d=" M 3246.0885306430246 -1089.6144448558393 L 3246.0885306430246 -1331.2144455710954 L 3749.0885313582785 -1331.2144455710954 L 3749.0885313582785 -1572.8144462863515" stroke-linejoin="round" stroke-miterlimit="10" stroke-width="10"/><path fill="none" stroke="url(#UgEPafZugJBC)" paint-order="fill stroke markers" d=" M 1734.3885299277686 -1248.3144448558385 L 1750.3885299277683 -1248.3144448558385 L 1750.3885299277683 -1248.3144448558385 L 1766.388529927768 -1248.3144448558385" stroke-linejoin="round" stroke-miterlimit="10" stroke-width="10"/><path fill="none" stroke="url(#QGFNDuxJuTAl)" paint-order="fill stroke markers" d=" M -943.511471502745 -1159.3144441405827 L -943.511471502745 -1366.0644452134666 L -1043.5114715027446 -1366.0644452134666 L -1043.5114715027446 -1572.8144462863506" stroke-linejoin="round" stroke-miterlimit="10" stroke-width="10"/><path fill="none" stroke="url(#FgHgLTcqMlPH)" paint-order="fill stroke markers" d=" M -943.511471502745 -1159.3144441405827 L -943.511471502745 -1366.0644452134666 L -1043.5114715027446 -1366.0644452134666 L -1043.5114715027446 -1572.8144462863506" stroke-linejoin="round" stroke-miterlimit="10" stroke-width="10"/><path fill="none" stroke="url(#JNUDyOnvbtWv)" paint-order="fill stroke markers" d=" M 1861.088530643025 1175.1855608662063 L 1861.088530643025 750.4855594356949 L 2664.28853135828 750.4855594356949 L 2664.28853135828 325.7855580051835" stroke-linejoin="round" stroke-miterlimit="10" stroke-width="10"/><path fill="none" stroke="url(#ShvJwCTUVxJD)" paint-order="fill stroke markers" d=" M 1258.0885299277693 575.985558720439 L 1258.0885299277693 450.88555836281125 L 1861.088530643025 450.88555836281125 L 1861.088530643025 325.7855580051835" stroke-linejoin="round" stroke-miterlimit="10" stroke-width="10"/><path fill="none" stroke="url(#xFwMQmLlIqTw)" paint-order="fill stroke markers" d=" M 2061.2885306430244 575.985558720439 L 2061.2885306430244 450.88555836281125 L 2664.28853135828 450.88555836281125 L 2664.28853135828 325.7855580051835" stroke-linejoin="round" stroke-miterlimit="10" stroke-width="10"/><path fill="none" stroke="url(#fmOMyVigibwn)" paint-order="fill stroke markers" d=" M 1534.5885299277693 1216.6855608662063 L 1961.1885306430247 1216.6855608662063 L 1961.1885306430247 284.2855580051835 L 2387.78853135828 284.2855580051835" stroke-linejoin="round" stroke-miterlimit="10" stroke-width="10"/><path fill="rgb(255,236,236)" stroke="rgb(220,71,125)" paint-order="fill stroke markers" d=" M 1861.088530643025 245.28555800518347 L 2127.088530643025 245.28555800518347 L 2127.088530643025 245.28555800518347 A 8 8 0 0 1 2135.088530643025 253.28555800518347 L 2135.088530643025 315.2855580051835 L 2135.088530643025 315.2855580051835 A 8 8 0 0 1 2127.088530643025 323.2855580051835 L 1595.088530643025 323.2855580051835 L 1595.088530643025 323.2855580051835 A 8 8 0 0 1 1587.088530643025 315.2855580051835 L 1587.088530643025 253.28555800518347 L 1587.088530643025 253.28555800518347 A 8 8 0 0 1 1595.088530643025 245.28555800518347 L 1861.088530643025 245.28555800518347 Z" fill-opacity="1" stroke-opacity="1" stroke-miterlimit="10" stroke-width="5"/><text fill="rgb(0,0,0)" stroke="none" font-family="Avenir, Helvetica, Arial, sans-serif" font-size="32px" font-style="normal" font-weight="bold" text-decoration="normal" x="1861.088530643025" y="300.2855580051835" text-anchor="middle" dominant-baseline="text-after-edge" fill-opacity="1">kubelet-approver</text><path fill="rgb(255,255,255)" stroke="rgb(211,211,211)" paint-order="fill stroke markers" d=" M 1258.0885299277693 1177.6855608662063 L 1524.0885299277693 1177.6855608662063 L 1524.0885299277693 1177.6855608662063 A 8 8 0 0 1 1532.0885299277693 1185.6855608662063 L 1532.0885299277693 1247.6855608662063 L 1532.0885299277693 1247.6855608662063 A 8 8 0 0 1 1524.0885299277693 1255.6855608662063 L 992.0885299277693 1255.6855608662063 L 992.0885299277693 1255.6855608662063 A 8 8 0 0 1 984.0885299277693 1247.6855608662063 L 984.0885299277693 1185.6855608662063 L 984.0885299277693 1185.6855608662063 A 8 8 0 0 1 992.0885299277693 1177.6855608662063 L 1258.0885299277693 1177.6855608662063 Z" fill-opacity="1" stroke-opacity="1" stroke-miterlimit="10" stroke-width="5"/><text fill="rgb(0,0,0)" stroke="none" font-family="Avenir, Helvetica, Arial, sans-serif" font-size="32px" font-style="normal" font-weight="bold" text-decoration="normal" x="1258.0885299277693" y="1232.6855608662063" text-anchor="middle" dominant-baseline="text-after-edge" fill-opacity="1">metallb-pool</text><path fill="rgb(255,255,255)" stroke="rgb(211,211,211)" paint-order="fill stroke markers" d=" M 2061.2885306430244 578.485558720439 L 2327.2885306430244 578.485558720439 L 2327.2885306430244 578.485558720439 A 8 8 0 0 1 2335.2885306430244 586.485558720439 L 2335.2885306430244 648.485558720439 L 2335.2885306430244 648.485558720439 A 8 8 0 0 1 2327.2885306430244 656.485558720439 L 1795.2885306430244 656.485558720439 L 1795.2885306430244 656.485558720439 A 8 8 0 0 1 1787.2885306430244 648.485558720439 L 1787.2885306430244 586.485558720439 L 1787.2885306430244 586.485558720439 A 8 8 0 0 1 1795.2885306430244 578.485558720439 L 2061.2885306430244 578.485558720439 Z" fill-opacity="1" stroke-opacity="1" stroke-miterlimit="10" stroke-width="5"/><text fill="rgb(0,0,0)" stroke="none" font-family="Avenir, Helvetica, Arial, sans-serif" font-size="32px" font-style="normal" font-weight="bold" text-decoration="normal" x="2061.2885306430244" y="633.485558720439" text-anchor="middle" dominant-baseline="text-after-edge" fill-opacity="1">metallb</text><path fill="rgb(255,255,255)" stroke="rgb(211,211,211)" paint-order="fill stroke markers" d=" M 1358.088529927769 1410.6855615814625 L 1624.088529927769 1410.6855615814625 L 1624.088529927769 1410.6855615814625 A 8 8 0 0 1 1632.088529927769 1418.6855615814625 L 1632.088529927769 1480.6855615814625 L 1632.088529927769 1480.6855615814625 A 8 8 0 0 1 1624.088529927769 1488.6855615814625 L 1092.088529927769 1488.6855615814625 L 1092.088529927769 1488.6855615814625 A 8 8 0 0 1 1084.088529927769 1480.6855615814625 L 1084.088529927769 1418.6855615814625 L 1084.088529927769 1418.6855615814625 A 8 8 0 0 1 1092.088529927769 1410.6855615814625 L 1358.088529927769 1410.6855615814625 Z" fill-opacity="1" stroke-opacity="1" stroke-miterlimit="10" stroke-width="5"/><text fill="rgb(0,0,0)" stroke="none" font-family="Avenir, Helvetica, Arial, sans-serif" font-size="32px" font-style="normal" font-weight="bold" text-decoration="normal" x="1358.088529927769" y="1465.6855615814625" text-anchor="middle" dominant-baseline="text-after-edge" fill-opacity="1">kubelet-approver["/apis/rbac.a…</text><path fill="rgb(255,255,255)" stroke="rgb(211,211,211)" paint-order="fill stroke markers" d=" M 1358.088529927769 1543.6855622967182 L 1624.088529927769 1543.6855622967182 L 1624.088529927769 1543.6855622967182 A 8 8 0 0 1 1632.088529927769 1551.6855622967182 L 1632.088529927769 1613.6855622967182 L 1632.088529927769 1613.6855622967182 A 8 8 0 0 1 1624.088529927769 1621.6855622967182 L 1092.088529927769 1621.6855622967182 L 1092.088529927769 1621.6855622967182 A 8 8 0 0 1 1084.088529927769 1613.6855622967182 L 1084.088529927769 1551.6855622967182 L 1084.088529927769 1551.6855622967182 A 8 8 0 0 1 1092.088529927769 1543.6855622967182 L 1358.088529927769 1543.6855622967182 Z" fill-opacity="1" stroke-opacity="1" stroke-miterlimit="10" stroke-width="5"/><text fill="rgb(0,0,0)" stroke="none" font-family="Avenir, Helvetica, Arial, sans-serif" font-size="32px" font-style="normal" font-weight="bold" text-decoration="normal" x="1358.088529927769" y="1598.6855622967182" text-anchor="middle" dominant-baseline="text-after-edge" fill-opacity="1">kubelet-approver["/apis/rbac.a…</text><path fill="rgb(255,255,255)" stroke="rgb(211,211,211)" paint-order="fill stroke markers" d=" M 1358.088529927769 1676.685563011974 L 1624.088529927769 1676.685563011974 L 1624.088529927769 1676.685563011974 A 8 8 0 0 1 1632.088529927769 1684.685563011974 L 1632.088529927769 1746.685563011974 L 1632.088529927769 1746.685563011974 A 8 8 0 0 1 1624.088529927769 1754.685563011974 L 1092.088529927769 1754.685563011974 L 1092.088529927769 1754.685563011974 A 8 8 0 0 1 1084.088529927769 1746.685563011974 L 1084.088529927769 1684.685563011974 L 1084.088529927769 1684.685563011974 A 8 8 0 0 1 1092.088529927769 1676.685563011974 L 1358.088529927769 1676.685563011974 Z" fill-opacity="1" stroke-opacity="1" stroke-miterlimit="10" stroke-width="5"/><text fill="rgb(0,0,0)" stroke="none" font-family="Avenir, Helvetica, Arial, sans-serif" font-size="32px" font-style="normal" font-weight="bold" text-decoration="normal" x="1358.088529927769" y="1731.685563011974" text-anchor="middle" dominant-baseline="text-after-edge" fill-opacity="1">kubelet-approver["/api/v1/nam…</text><path fill="rgb(255,255,255)" stroke="rgb(211,211,211)" paint-order="fill stroke markers" d=" M 1358.088529927769 1809.68556372723 L 1624.088529927769 1809.68556372723 L 1624.088529927769 1809.68556372723 A 8 8 0 0 1 1632.088529927769 1817.68556372723 L 1632.088529927769 1879.68556372723 L 1632.088529927769 1879.68556372723 A 8 8 0 0 1 1624.088529927769 1887.68556372723 L 1092.088529927769 1887.68556372723 L 1092.088529927769 1887.68556372723 A 8 8 0 0 1 1084.088529927769 1879.68556372723 L 1084.088529927769 1817.68556372723 L 1084.088529927769 1817.68556372723 A 8 8 0 0 1 1092.088529927769 1809.68556372723 L 1358.088529927769 1809.68556372723 Z" fill-opacity="1" stroke-opacity="1" stroke-miterlimit="10" stroke-width="5"/><text fill="rgb(0,0,0)" stroke="none" font-family="Avenir, Helvetica, Arial, sans-serif" font-size="32px" font-style="normal" font-weight="bold" text-decoration="normal" x="1358.088529927769" y="1864.68556372723" text-anchor="middle" dominant-baseline="text-after-edge" fill-opacity="1">kubelet-approver["/api/v1/nam…</text><path fill="rgb(255,255,255)" stroke="rgb(211,211,211)" paint-order="fill stroke markers" d=" M 1358.088529927769 1942.6855644424857 L 1624.088529927769 1942.6855644424857 L 1624.088529927769 1942.6855644424857 A 8 8 0 0 1 1632.088529927769 1950.6855644424857 L 1632.088529927769 2012.6855644424857 L 1632.088529927769 2012.6855644424857 A 8 8 0 0 1 1624.088529927769 2020.6855644424857 L 1092.088529927769 2020.6855644424857 L 1092.088529927769 2020.6855644424857 A 8 8 0 0 1 1084.088529927769 2012.6855644424857 L 1084.088529927769 1950.6855644424857 L 1084.088529927769 1950.6855644424857 A 8 8 0 0 1 1092.088529927769 1942.6855644424857 L 1358.088529927769 1942.6855644424857 Z" fill-opacity="1" stroke-opacity="1" stroke-miterlimit="10" stroke-width="5"/><text fill="rgb(0,0,0)" stroke="none" font-family="Avenir, Helvetica, Arial, sans-serif" font-size="32px" font-style="normal" font-weight="bold" text-decoration="normal" x="1358.088529927769" y="1997.6855644424857" text-anchor="middle" dominant-baseline="text-after-edge" fill-opacity="1">kubelet-approver["/api/v1/nam…</text><path fill="rgb(255,255,255)" stroke="rgb(211,211,211)" paint-order="fill stroke markers" d=" M 1358.088529927769 2075.685565157741 L 1624.088529927769 2075.685565157741 L 1624.088529927769 2075.685565157741 A 8 8 0 0 1 1632.088529927769 2083.685565157741 L 1632.088529927769 2145.685565157741 L 1632.088529927769 2145.685565157741 A 8 8 0 0 1 1624.088529927769 2153.685565157741 L 1092.088529927769 2153.685565157741 L 1092.088529927769 2153.685565157741 A 8 8 0 0 1 1084.088529927769 2145.685565157741 L 1084.088529927769 2083.685565157741 L 1084.088529927769 2083.685565157741 A 8 8 0 0 1 1092.088529927769 2075.685565157741 L 1358.088529927769 2075.685565157741 Z" fill-opacity="1" stroke-opacity="1" stroke-miterlimit="10" stroke-width="5"/><text fill="rgb(0,0,0)" stroke="none" font-family="Avenir, Helvetica, Arial, sans-serif" font-size="32px" font-style="normal" font-weight="bold" text-decoration="normal" x="1358.088529927769" y="2130.685565157741" text-anchor="middle" dominant-baseline="text-after-edge" fill-opacity="1">kubelet-approver["/apis/apps/v…</text><path fill="rgb(255,255,255)" stroke="rgb(211,211,211)" paint-order="fill stroke markers" d=" M 1358.088529927769 2208.685565872997 L 1624.088529927769 2208.685565872997 L 1624.088529927769 2208.685565872997 A 8 8 0 0 1 1632.088529927769 2216.685565872997 L 1632.088529927769 2278.685565872997 L 1632.088529927769 2278.685565872997 A 8 8 0 0 1 1624.088529927769 2286.685565872997 L 1092.088529927769 2286.685565872997 L 1092.088529927769 2286.685565872997 A 8 8 0 0 1 1084.088529927769 2278.685565872997 L 1084.088529927769 2216.685565872997 L 1084.088529927769 2216.685565872997 A 8 8 0 0 1 1092.088529927769 2208.685565872997 L 1358.088529927769 2208.685565872997 Z" fill-opacity="1" stroke-opacity="1" stroke-miterlimit="10" stroke-width="5"/><text fill="rgb(0,0,0)" stroke="none" font-family="Avenir, Helvetica, Arial, sans-serif" font-size="32px" font-style="normal" font-weight="bold" text-decoration="normal" x="1358.088529927769" y="2263.685565872997" text-anchor="middle" dominant-baseline="text-after-edge" fill-opacity="1">kubelet-approver["/apis/rbac.a…</text><path fill="rgb(255,255,255)" stroke="rgb(211,211,211)" paint-order="fill stroke markers" d=" M 1358.088529927769 2341.685566588247 L 1624.088529927769 2341.685566588247 L 1624.088529927769 2341.685566588247 A 8 8 0 0 1 1632.088529927769 2349.685566588247 L 1632.088529927769 2411.685566588247 L 1632.088529927769 2411.685566588247 A 8 8 0 0 1 1624.088529927769 2419.685566588247 L 1092.088529927769 2419.685566588247 L 1092.088529927769 2419.685566588247 A 8 8 0 0 1 1084.088529927769 2411.685566588247 L 1084.088529927769 2349.685566588247 L 1084.088529927769 2349.685566588247 A 8 8 0 0 1 1092.088529927769 2341.685566588247 L 1358.088529927769 2341.685566588247 Z" fill-opacity="1" stroke-opacity="1" stroke-miterlimit="10" stroke-width="5"/><text fill="rgb(0,0,0)" stroke="none" font-family="Avenir, Helvetica, Arial, sans-serif" font-size="32px" font-style="normal" font-weight="bold" text-decoration="normal" x="1358.088529927769" y="2396.685566588247" text-anchor="middle" dominant-baseline="text-after-edge" fill-opacity="1">kubelet-approver["/apis/rbac.a…</text><path fill="rgb(255,255,255)" stroke="rgb(211,211,211)" paint-order="fill stroke markers" d=" M 2664.28853135828 245.28555800518347 L 2930.28853135828 245.28555800518347 L 2930.28853135828 245.28555800518347 A 8 8 0 0 1 2938.28853135828 253.28555800518347 L 2938.28853135828 315.2855580051835 L 2938.28853135828 315.2855580051835 A 8 8 0 0 1 2930.28853135828 323.2855580051835 L 2398.28853135828 323.2855580051835 L 2398.28853135828 323.2855580051835 A 8 8 0 0 1 2390.28853135828 315.2855580051835 L 2390.28853135828 253.28555800518347 L 2390.28853135828 253.28555800518347 A 8 8 0 0 1 2398.28853135828 245.28555800518347 L 2664.28853135828 245.28555800518347 Z" fill-opacity="1" stroke-opacity="1" stroke-miterlimit="10" stroke-width="5"/><text fill="rgb(0,0,0)" stroke="none" font-family="Avenir, Helvetica, Arial, sans-serif" font-size="32px" font-style="normal" font-weight="bold" text-decoration="normal" x="2664.28853135828" y="300.2855580051835" text-anchor="middle" dominant-baseline="text-after-edge" fill-opacity="1">metallb</text><path fill="rgb(225,240,255)" stroke="rgb(29,122,218)" paint-order="fill stroke markers" d=" M 1158.0885299277695 145.28555800518347 L 1424.0885299277695 145.28555800518347 L 1424.0885299277695 145.28555800518347 A 8 8 0 0 1 1432.0885299277695 153.28555800518347 L 1432.0885299277695 215.28555800518347 L 1432.0885299277695 215.28555800518347 A 8 8 0 0 1 1424.0885299277695 223.28555800518347 L 892.0885299277695 223.28555800518347 L 892.0885299277695 223.28555800518347 A 8 8 0 0 1 884.0885299277695 215.28555800518347 L 884.0885299277695 153.28555800518347 L 884.0885299277695 153.28555800518347 A 8 8 0 0 1 892.0885299277695 145.28555800518347 L 1158.0885299277695 145.28555800518347 Z" fill-opacity="1" stroke-opacity="1" stroke-miterlimit="10" stroke-width="5"/><text fill="rgb(0,0,0)" stroke="none" font-family="Avenir, Helvetica, Arial, sans-serif" font-size="32px" font-style="normal" font-weight="bold" text-decoration="normal" x="1158.0885299277695" y="200.28555800518347" text-anchor="middle" dominant-baseline="text-after-edge" fill-opacity="1">nfs_k8s_storage</text><path fill="rgb(255,255,255)" stroke="rgb(211,211,211)" paint-order="fill stroke markers" d=" M 1861.088530643025 1177.6855608662063 L 2127.088530643025 1177.6855608662063 L 2127.088530643025 1177.6855608662063 A 8 8 0 0 1 2135.088530643025 1185.6855608662063 L 2135.088530643025 1247.6855608662063 L 2135.088530643025 1247.6855608662063 A 8 8 0 0 1 2127.088530643025 1255.6855608662063 L 1595.088530643025 1255.6855608662063 L 1595.088530643025 1255.6855608662063 A 8 8 0 0 1 1587.088530643025 1247.6855608662063 L 1587.088530643025 1185.6855608662063 L 1587.088530643025 1185.6855608662063 A 8 8 0 0 1 1595.088530643025 1177.6855608662063 L 1861.088530643025 1177.6855608662063 Z" fill-opacity="1" stroke-opacity="1" stroke-miterlimit="10" stroke-width="5"/><text fill="rgb(0,0,0)" stroke="none" font-family="Avenir, Helvetica, Arial, sans-serif" font-size="32px" font-style="normal" font-weight="bold" text-decoration="normal" x="1861.088530643025" y="1232.6855608662063" text-anchor="middle" dominant-baseline="text-after-edge" fill-opacity="1">metallb-l2-advertisement</text><path fill="rgb(255,236,236)" stroke="rgb(220,71,125)" paint-order="fill stroke markers" d=" M 1258.0885299277693 578.485558720439 L 1524.0885299277693 578.485558720439 L 1524.0885299277693 578.485558720439 A 8 8 0 0 1 1532.0885299277693 586.485558720439 L 1532.0885299277693 648.485558720439 L 1532.0885299277693 648.485558720439 A 8 8 0 0 1 1524.0885299277693 656.485558720439 L 992.0885299277693 656.485558720439 L 992.0885299277693 656.485558720439 A 8 8 0 0 1 984.0885299277693 648.485558720439 L 984.0885299277693 586.485558720439 L 984.0885299277693 586.485558720439 A 8 8 0 0 1 992.0885299277693 578.485558720439 L 1258.0885299277693 578.485558720439 Z" fill-opacity="1" stroke-opacity="1" stroke-miterlimit="10" stroke-width="5"/><text fill="rgb(0,0,0)" stroke="none" font-family="Avenir, Helvetica, Arial, sans-serif" font-size="32px" font-style="normal" font-weight="bold" text-decoration="normal" x="1258.0885299277693" y="633.485558720439" text-anchor="middle" dominant-baseline="text-after-edge" fill-opacity="1">metrics_server_doc</text><path fill="rgb(255,255,255)" stroke="rgb(211,211,211)" paint-order="fill stroke markers" d=" M 2061.2885306430244 711.4855594356948 L 2327.2885306430244 711.4855594356948 L 2327.2885306430244 711.4855594356948 A 8 8 0 0 1 2335.2885306430244 719.4855594356948 L 2335.2885306430244 781.4855594356948 L 2335.2885306430244 781.4855594356948 A 8 8 0 0 1 2327.2885306430244 789.4855594356948 L 1795.2885306430244 789.4855594356948 L 1795.2885306430244 789.4855594356948 A 8 8 0 0 1 1787.2885306430244 781.4855594356948 L 1787.2885306430244 719.4855594356948 L 1787.2885306430244 719.4855594356948 A 8 8 0 0 1 1795.2885306430244 711.4855594356948 L 2061.2885306430244 711.4855594356948 Z" fill-opacity="1" stroke-opacity="1" stroke-miterlimit="10" stroke-width="5"/><text fill="rgb(0,0,0)" stroke="none" font-family="Avenir, Helvetica, Arial, sans-serif" font-size="32px" font-style="normal" font-weight="bold" text-decoration="normal" x="2061.2885306430244" y="766.4855594356948" text-anchor="middle" dominant-baseline="text-after-edge" fill-opacity="1">metrics-server</text><path fill="rgb(255,255,255)" stroke="rgb(211,211,211)" paint-order="fill stroke markers" d=" M 2061.2885306430244 844.4855601509505 L 2327.2885306430244 844.4855601509505 L 2327.2885306430244 844.4855601509505 A 8 8 0 0 1 2335.2885306430244 852.4855601509505 L 2335.2885306430244 914.4855601509505 L 2335.2885306430244 914.4855601509505 A 8 8 0 0 1 2327.2885306430244 922.4855601509505 L 1795.2885306430244 922.4855601509505 L 1795.2885306430244 922.4855601509505 A 8 8 0 0 1 1787.2885306430244 914.4855601509505 L 1787.2885306430244 852.4855601509505 L 1787.2885306430244 852.4855601509505 A 8 8 0 0 1 1795.2885306430244 844.4855601509505 L 2061.2885306430244 844.4855601509505 Z" fill-opacity="1" stroke-opacity="1" stroke-miterlimit="10" stroke-width="5"/><text fill="rgb(0,0,0)" stroke="none" font-family="Avenir, Helvetica, Arial, sans-serif" font-size="32px" font-style="normal" font-weight="bold" text-decoration="normal" x="2061.2885306430244" y="899.4855601509505" text-anchor="middle" dominant-baseline="text-after-edge" fill-opacity="1">nfs-storage</text><path fill="rgb(228,7,7)" stroke="none" paint-order="stroke fill markers" d=" M -140.31147078748688 711.4855594356942 L 125.68852921251312 711.4855594356942 L 125.68852921251312 711.4855594356942 A 8 8 0 0 1 133.68852921251312 719.4855594356942 L 133.68852921251312 781.4855594356942 L 133.68852921251312 781.4855594356942 A 8 8 0 0 1 125.68852921251312 789.4855594356942 L -406.3114707874869 789.4855594356942 L -406.3114707874869 789.4855594356942 A 8 8 0 0 1 -414.3114707874869 781.4855594356942 L -414.3114707874869 719.4855594356942 L -414.3114707874869 719.4855594356942 A 8 8 0 0 1 -406.3114707874869 711.4855594356942 L -140.31147078748688 711.4855594356942 Z" fill-opacity="1"/><text fill="rgb(255,255,255)" stroke="none" font-family="Avenir, Helvetica, Arial, sans-serif" font-size="32px" font-style="normal" font-weight="bold" text-decoration="normal" x="-140.31147078748688" y="766.4855594356942" text-anchor="middle" dominant-baseline="text-after-edge" fill-opacity="1">elastic-init-user</text><path fill="rgb(255,236,236)" stroke="rgb(220,71,125)" paint-order="fill stroke markers" d=" M -943.5114715027444 245.2855580051829 L -677.5114715027444 245.2855580051829 L -677.5114715027444 245.2855580051829 A 8 8 0 0 1 -669.5114715027444 253.2855580051829 L -669.5114715027444 315.2855580051829 L -669.5114715027444 315.2855580051829 A 8 8 0 0 1 -677.5114715027444 323.2855580051829 L -1209.5114715027444 323.2855580051829 L -1209.5114715027444 323.2855580051829 A 8 8 0 0 1 -1217.5114715027444 315.2855580051829 L -1217.5114715027444 253.2855580051829 L -1217.5114715027444 253.2855580051829 A 8 8 0 0 1 -1209.5114715027444 245.2855580051829 L -943.5114715027444 245.2855580051829 Z" fill-opacity="1" stroke-opacity="1" stroke-miterlimit="10" stroke-width="5"/><text fill="rgb(0,0,0)" stroke="none" font-family="Avenir, Helvetica, Arial, sans-serif" font-size="32px" font-style="normal" font-weight="bold" text-decoration="normal" x="-943.5114715027444" y="300.2855580051829" text-anchor="middle" dominant-baseline="text-after-edge" fill-opacity="1">elk</text><path fill="rgb(29,122,218)" stroke="none" paint-order="stroke fill markers" d=" M -140.31147078748688 839.48556015095 L 125.68852921251312 839.48556015095 L 125.68852921251312 839.48556015095 A 8 8 0 0 1 133.68852921251312 847.48556015095 L 133.68852921251312 909.48556015095 L 133.68852921251312 909.48556015095 A 8 8 0 0 1 125.68852921251312 917.48556015095 L -406.3114707874869 917.48556015095 L -406.3114707874869 917.48556015095 A 8 8 0 0 1 -414.3114707874869 909.48556015095 L -414.3114707874869 847.48556015095 L -414.3114707874869 847.48556015095 A 8 8 0 0 1 -406.3114707874869 839.48556015095 L -140.31147078748688 839.48556015095 Z" fill-opacity="1"/><text fill="rgb(255,255,255)" stroke="none" font-family="Avenir, Helvetica, Arial, sans-serif" font-size="32px" font-style="normal" font-weight="bold" text-decoration="normal" x="-140.31147078748688" y="894.48556015095" text-anchor="middle" dominant-baseline="text-after-edge" fill-opacity="1">elk-kibana</text><path fill="rgb(228,7,7)" stroke="none" paint-order="stroke fill markers" d=" M -40.31147078748688 1067.4855608662062 L 225.68852921251312 1067.4855608662062 L 225.68852921251312 1067.4855608662062 A 8 8 0 0 1 233.68852921251312 1075.4855608662062 L 233.68852921251312 1137.4855608662062 L 233.68852921251312 1137.4855608662062 A 8 8 0 0 1 225.68852921251312 1145.4855608662062 L -306.3114707874869 1145.4855608662062 L -306.3114707874869 1145.4855608662062 A 8 8 0 0 1 -314.3114707874869 1137.4855608662062 L -314.3114707874869 1075.4855608662062 L -314.3114707874869 1075.4855608662062 A 8 8 0 0 1 -306.3114707874869 1067.4855608662062 L -40.31147078748688 1067.4855608662062 Z" fill-opacity="1"/><text fill="rgb(255,255,255)" stroke="none" font-family="Avenir, Helvetica, Arial, sans-serif" font-size="32px" font-style="normal" font-weight="bold" text-decoration="normal" x="-40.31147078748688" y="1122.4855608662062" text-anchor="middle" dominant-baseline="text-after-edge" fill-opacity="1">elk-kibana["apiVersion: kibana.…</text><path fill="rgb(40,167,69)" stroke="none" paint-order="stroke fill markers" d=" M -40.31147078748688 1195.4855615814622 L 225.68852921251312 1195.4855615814622 L 225.68852921251312 1195.4855615814622 A 8 8 0 0 1 233.68852921251312 1203.4855615814622 L 233.68852921251312 1265.4855615814622 L 233.68852921251312 1265.4855615814622 A 8 8 0 0 1 225.68852921251312 1273.4855615814622 L -306.3114707874869 1273.4855615814622 L -306.3114707874869 1273.4855615814622 A 8 8 0 0 1 -314.3114707874869 1265.4855615814622 L -314.3114707874869 1203.4855615814622 L -314.3114707874869 1203.4855615814622 A 8 8 0 0 1 -306.3114707874869 1195.4855615814622 L -40.31147078748688 1195.4855615814622 Z" fill-opacity="1"/><text fill="rgb(255,255,255)" stroke="none" font-family="Avenir, Helvetica, Arial, sans-serif" font-size="32px" font-style="normal" font-weight="bold" text-decoration="normal" x="-40.31147078748688" y="1250.4855615814622" text-anchor="middle" dominant-baseline="text-after-edge" fill-opacity="1">elk-kibana["apiVersion: kibana.…</text><path fill="rgb(255,255,255)" stroke="rgb(211,211,211)" paint-order="fill stroke markers" d=" M -140.31147078748688 245.2855580051829 L 125.68852921251312 245.2855580051829 L 125.68852921251312 245.2855580051829 A 8 8 0 0 1 133.68852921251312 253.2855580051829 L 133.68852921251312 315.2855580051829 L 133.68852921251312 315.2855580051829 A 8 8 0 0 1 125.68852921251312 323.2855580051829 L -406.3114707874869 323.2855580051829 L -406.3114707874869 323.2855580051829 A 8 8 0 0 1 -414.3114707874869 315.2855580051829 L -414.3114707874869 253.2855580051829 L -414.3114707874869 253.2855580051829 A 8 8 0 0 1 -406.3114707874869 245.2855580051829 L -140.31147078748688 245.2855580051829 Z" fill-opacity="1" stroke-opacity="1" stroke-miterlimit="10" stroke-width="5"/><text fill="rgb(0,0,0)" stroke="none" font-family="Avenir, Helvetica, Arial, sans-serif" font-size="32px" font-style="normal" font-weight="bold" text-decoration="normal" x="-140.31147078748688" y="300.2855580051829" text-anchor="middle" dominant-baseline="text-after-edge" fill-opacity="1">kong-gateway</text><path fill="rgb(255,255,255)" stroke="rgb(211,211,211)" paint-order="fill stroke markers" d=" M -943.5114715027444 839.4855601509496 L -677.5114715027444 839.4855601509496 L -677.5114715027444 839.4855601509496 A 8 8 0 0 1 -669.5114715027444 847.4855601509496 L -669.5114715027444 909.4855601509496 L -669.5114715027444 909.4855601509496 A 8 8 0 0 1 -677.5114715027444 917.4855601509496 L -1209.5114715027444 917.4855601509496 L -1209.5114715027444 917.4855601509496 A 8 8 0 0 1 -1217.5114715027444 909.4855601509496 L -1217.5114715027444 847.4855601509496 L -1217.5114715027444 847.4855601509496 A 8 8 0 0 1 -1209.5114715027444 839.4855601509496 L -943.5114715027444 839.4855601509496 Z" fill-opacity="1" stroke-opacity="1" stroke-miterlimit="10" stroke-width="5"/><text fill="rgb(0,0,0)" stroke="none" font-family="Avenir, Helvetica, Arial, sans-serif" font-size="32px" font-style="normal" font-weight="bold" text-decoration="normal" x="-943.5114715027444" y="894.4855601509496" text-anchor="middle" dominant-baseline="text-after-edge" fill-opacity="1">elastic-operator</text><path fill="rgb(255,255,255)" stroke="rgb(211,211,211)" paint-order="fill stroke markers" d=" M -943.5114715027444 972.4855608662056 L -677.5114715027444 972.4855608662056 L -677.5114715027444 972.4855608662056 A 8 8 0 0 1 -669.5114715027444 980.4855608662056 L -669.5114715027444 1042.4855608662056 L -669.5114715027444 1042.4855608662056 A 8 8 0 0 1 -677.5114715027444 1050.4855608662056 L -1209.5114715027444 1050.4855608662056 L -1209.5114715027444 1050.4855608662056 A 8 8 0 0 1 -1217.5114715027444 1042.4855608662056 L -1217.5114715027444 980.4855608662056 L -1217.5114715027444 980.4855608662056 A 8 8 0 0 1 -1209.5114715027444 972.4855608662056 L -943.5114715027444 972.4855608662056 Z" fill-opacity="1" stroke-opacity="1" stroke-miterlimit="10" stroke-width="5"/><text fill="rgb(0,0,0)" stroke="none" font-family="Avenir, Helvetica, Arial, sans-serif" font-size="32px" font-style="normal" font-weight="bold" text-decoration="normal" x="-943.5114715027444" y="1027.4855608662056" text-anchor="middle" dominant-baseline="text-after-edge" fill-opacity="1">fluent-bit</text><path fill="rgb(255,255,255)" stroke="rgb(211,211,211)" paint-order="fill stroke markers" d=" M -943.5114715027444 1105.4855615814613 L -677.5114715027444 1105.4855615814613 L -677.5114715027444 1105.4855615814613 A 8 8 0 0 1 -669.5114715027444 1113.4855615814613 L -669.5114715027444 1175.4855615814613 L -669.5114715027444 1175.4855615814613 A 8 8 0 0 1 -677.5114715027444 1183.4855615814613 L -1209.5114715027444 1183.4855615814613 L -1209.5114715027444 1183.4855615814613 A 8 8 0 0 1 -1217.5114715027444 1175.4855615814613 L -1217.5114715027444 1113.4855615814613 L -1217.5114715027444 1113.4855615814613 A 8 8 0 0 1 -1209.5114715027444 1105.4855615814613 L -943.5114715027444 1105.4855615814613 Z" fill-opacity="1" stroke-opacity="1" stroke-miterlimit="10" stroke-width="5"/><text fill="rgb(0,0,0)" stroke="none" font-family="Avenir, Helvetica, Arial, sans-serif" font-size="32px" font-style="normal" font-weight="bold" text-decoration="normal" x="-943.5114715027444" y="1160.4855615814613" text-anchor="middle" dominant-baseline="text-after-edge" fill-opacity="1">kong-gateway</text><path fill="rgb(255,255,255)" stroke="rgb(211,211,211)" paint-order="fill stroke markers" d=" M -140.31147078748688 378.28555872043864 L 125.68852921251312 378.28555872043864 L 125.68852921251312 378.28555872043864 A 8 8 0 0 1 133.68852921251312 386.28555872043864 L 133.68852921251312 448.28555872043864 L 133.68852921251312 448.28555872043864 A 8 8 0 0 1 125.68852921251312 456.28555872043864 L -406.3114707874869 456.28555872043864 L -406.3114707874869 456.28555872043864 A 8 8 0 0 1 -414.3114707874869 448.28555872043864 L -414.3114707874869 386.28555872043864 L -414.3114707874869 386.28555872043864 A 8 8 0 0 1 -406.3114707874869 378.28555872043864 L -140.31147078748688 378.28555872043864 Z" fill-opacity="1" stroke-opacity="1" stroke-miterlimit="10" stroke-width="5"/><text fill="rgb(0,0,0)" stroke="none" font-family="Avenir, Helvetica, Arial, sans-serif" font-size="32px" font-style="normal" font-weight="bold" text-decoration="normal" x="-140.31147078748688" y="433.28555872043864" text-anchor="middle" dominant-baseline="text-after-edge" fill-opacity="1">istio-system</text><path fill="rgb(29,122,218)" stroke="none" paint-order="stroke fill markers" d=" M -943.5114715027444 711.485559435694 L -677.5114715027444 711.485559435694 L -677.5114715027444 711.485559435694 A 8 8 0 0 1 -669.5114715027444 719.485559435694 L -669.5114715027444 781.485559435694 L -669.5114715027444 781.485559435694 A 8 8 0 0 1 -677.5114715027444 789.485559435694 L -1209.5114715027444 789.485559435694 L -1209.5114715027444 789.485559435694 A 8 8 0 0 1 -1217.5114715027444 781.485559435694 L -1217.5114715027444 719.485559435694 L -1217.5114715027444 719.485559435694 A 8 8 0 0 1 -1209.5114715027444 711.485559435694 L -943.5114715027444 711.485559435694 Z" fill-opacity="1"/><text fill="rgb(255,255,255)" stroke="none" font-family="Avenir, Helvetica, Arial, sans-serif" font-size="32px" font-style="normal" font-weight="bold" text-decoration="normal" x="-943.5114715027444" y="766.485559435694" text-anchor="middle" dominant-baseline="text-after-edge" fill-opacity="1">kube-prom-stack</text><path fill="rgb(225,240,255)" stroke="rgb(29,122,218)" paint-order="fill stroke markers" d=" M 3146.0885306430246 -1653.3144462863515 L 3412.0885306430246 -1653.3144462863515 L 3412.0885306430246 -1653.3144462863515 A 8 8 0 0 1 3420.0885306430246 -1645.3144462863515 L 3420.0885306430246 -1583.3144462863515 L 3420.0885306430246 -1583.3144462863515 A 8 8 0 0 1 3412.0885306430246 -1575.3144462863515 L 2880.0885306430246 -1575.3144462863515 L 2880.0885306430246 -1575.3144462863515 A 8 8 0 0 1 2872.0885306430246 -1583.3144462863515 L 2872.0885306430246 -1645.3144462863515 L 2872.0885306430246 -1645.3144462863515 A 8 8 0 0 1 2880.0885306430246 -1653.3144462863515 L 3146.0885306430246 -1653.3144462863515 Z" fill-opacity="1" stroke-opacity="1" stroke-miterlimit="10" stroke-width="5"/><text fill="rgb(0,0,0)" stroke="none" font-family="Avenir, Helvetica, Arial, sans-serif" font-size="32px" font-style="normal" font-weight="bold" text-decoration="normal" x="3146.0885306430246" y="-1598.3144462863515" text-anchor="middle" dominant-baseline="text-after-edge" fill-opacity="1">proxmox_config</text><path fill="rgb(225,240,255)" stroke="rgb(29,122,218)" paint-order="fill stroke markers" d=" M 3749.0885313582785 -1653.3144462863515 L 4015.0885313582785 -1653.3144462863515 L 4015.0885313582785 -1653.3144462863515 A 8 8 0 0 1 4023.0885313582785 -1645.3144462863515 L 4023.0885313582785 -1583.3144462863515 L 4023.0885313582785 -1583.3144462863515 A 8 8 0 0 1 4015.0885313582785 -1575.3144462863515 L 3483.0885313582785 -1575.3144462863515 L 3483.0885313582785 -1575.3144462863515 A 8 8 0 0 1 3475.0885313582785 -1583.3144462863515 L 3475.0885313582785 -1645.3144462863515 L 3475.0885313582785 -1645.3144462863515 A 8 8 0 0 1 3483.0885313582785 -1653.3144462863515 L 3749.0885313582785 -1653.3144462863515 Z" fill-opacity="1" stroke-opacity="1" stroke-miterlimit="10" stroke-width="5"/><text fill="rgb(0,0,0)" stroke="none" font-family="Avenir, Helvetica, Arial, sans-serif" font-size="32px" font-style="normal" font-weight="bold" text-decoration="normal" x="3749.0885313582785" y="-1598.3144462863515" text-anchor="middle" dominant-baseline="text-after-edge" fill-opacity="1">talos</text><path fill="rgb(255,255,255)" stroke="rgb(211,211,211)" paint-order="fill stroke markers" d=" M 3346.0885306430246 -854.1144441405836 L 3612.0885306430246 -854.1144441405836 L 3612.0885306430246 -854.1144441405836 A 8 8 0 0 1 3620.0885306430246 -846.1144441405836 L 3620.0885306430246 -784.1144441405836 L 3620.0885306430246 -784.1144441405836 A 8 8 0 0 1 3612.0885306430246 -776.1144441405836 L 3080.0885306430246 -776.1144441405836 L 3080.0885306430246 -776.1144441405836 A 8 8 0 0 1 3072.0885306430246 -784.1144441405836 L 3072.0885306430246 -846.1144441405836 L 3072.0885306430246 -846.1144441405836 A 8 8 0 0 1 3080.0885306430246 -854.1144441405836 L 3346.0885306430246 -854.1144441405836 Z" fill-opacity="1" stroke-opacity="1" stroke-miterlimit="10" stroke-width="5"/><text fill="rgb(0,0,0)" stroke="none" font-family="Avenir, Helvetica, Arial, sans-serif" font-size="32px" font-style="normal" font-weight="bold" text-decoration="normal" x="3346.0885306430246" y="-799.1144441405836" text-anchor="middle" dominant-baseline="text-after-edge" fill-opacity="1">kubernetes-worker_vm[2]</text><path fill="rgb(255,255,255)" stroke="rgb(211,211,211)" paint-order="fill stroke markers" d=" M 3346.0885306430246 -721.1144434253279 L 3612.0885306430246 -721.1144434253279 L 3612.0885306430246 -721.1144434253279 A 8 8 0 0 1 3620.0885306430246 -713.1144434253279 L 3620.0885306430246 -651.1144434253279 L 3620.0885306430246 -651.1144434253279 A 8 8 0 0 1 3612.0885306430246 -643.1144434253279 L 3080.0885306430246 -643.1144434253279 L 3080.0885306430246 -643.1144434253279 A 8 8 0 0 1 3072.0885306430246 -651.1144434253279 L 3072.0885306430246 -713.1144434253279 L 3072.0885306430246 -713.1144434253279 A 8 8 0 0 1 3080.0885306430246 -721.1144434253279 L 3346.0885306430246 -721.1144434253279 Z" fill-opacity="1" stroke-opacity="1" stroke-miterlimit="10" stroke-width="5"/><text fill="rgb(0,0,0)" stroke="none" font-family="Avenir, Helvetica, Arial, sans-serif" font-size="32px" font-style="normal" font-weight="bold" text-decoration="normal" x="3346.0885306430246" y="-666.1144434253279" text-anchor="middle" dominant-baseline="text-after-edge" fill-opacity="1">kubernetes-worker_vm[0]</text><path fill="rgb(255,255,255)" stroke="rgb(211,211,211)" paint-order="fill stroke markers" d=" M 3346.0885306430246 -588.1144427100721 L 3612.0885306430246 -588.1144427100721 L 3612.0885306430246 -588.1144427100721 A 8 8 0 0 1 3620.0885306430246 -580.1144427100721 L 3620.0885306430246 -518.1144427100721 L 3620.0885306430246 -518.1144427100721 A 8 8 0 0 1 3612.0885306430246 -510.1144427100721 L 3080.0885306430246 -510.1144427100721 L 3080.0885306430246 -510.1144427100721 A 8 8 0 0 1 3072.0885306430246 -518.1144427100721 L 3072.0885306430246 -580.1144427100721 L 3072.0885306430246 -580.1144427100721 A 8 8 0 0 1 3080.0885306430246 -588.1144427100721 L 3346.0885306430246 -588.1144427100721 Z" fill-opacity="1" stroke-opacity="1" stroke-miterlimit="10" stroke-width="5"/><text fill="rgb(0,0,0)" stroke="none" font-family="Avenir, Helvetica, Arial, sans-serif" font-size="32px" font-style="normal" font-weight="bold" text-decoration="normal" x="3346.0885306430246" y="-533.1144427100721" text-anchor="middle" dominant-baseline="text-after-edge" fill-opacity="1">kubernetes-worker_vm[1]</text><path fill="rgb(255,255,255)" stroke="rgb(211,211,211)" paint-order="fill stroke markers" d=" M 3246.0885306430246 -1420.314445571095 L 3512.0885306430246 -1420.314445571095 L 3512.0885306430246 -1420.314445571095 A 8 8 0 0 1 3520.0885306430246 -1412.314445571095 L 3520.0885306430246 -1350.314445571095 L 3520.0885306430246 -1350.314445571095 A 8 8 0 0 1 3512.0885306430246 -1342.314445571095 L 2980.0885306430246 -1342.314445571095 L 2980.0885306430246 -1342.314445571095 A 8 8 0 0 1 2972.0885306430246 -1350.314445571095 L 2972.0885306430246 -1412.314445571095 L 2972.0885306430246 -1412.314445571095 A 8 8 0 0 1 2980.0885306430246 -1420.314445571095 L 3246.0885306430246 -1420.314445571095 Z" fill-opacity="1" stroke-opacity="1" stroke-miterlimit="10" stroke-width="5"/><text fill="rgb(0,0,0)" stroke="none" font-family="Avenir, Helvetica, Arial, sans-serif" font-size="32px" font-style="normal" font-weight="bold" text-decoration="normal" x="3246.0885306430246" y="-1365.314445571095" text-anchor="middle" dominant-baseline="text-after-edge" fill-opacity="1">talos_base_image</text><path fill="rgb(255,255,255)" stroke="rgb(211,211,211)" paint-order="fill stroke markers" d=" M 3246.0885306430246 -1087.1144448558393 L 3512.0885306430246 -1087.1144448558393 L 3512.0885306430246 -1087.1144448558393 A 8 8 0 0 1 3520.0885306430246 -1079.1144448558393 L 3520.0885306430246 -1017.1144448558393 L 3520.0885306430246 -1017.1144448558393 A 8 8 0 0 1 3512.0885306430246 -1009.1144448558393 L 2980.0885306430246 -1009.1144448558393 L 2980.0885306430246 -1009.1144448558393 A 8 8 0 0 1 2972.0885306430246 -1017.1144448558393 L 2972.0885306430246 -1079.1144448558393 L 2972.0885306430246 -1079.1144448558393 A 8 8 0 0 1 2980.0885306430246 -1087.1144448558393 L 3246.0885306430246 -1087.1144448558393 Z" fill-opacity="1" stroke-opacity="1" stroke-miterlimit="10" stroke-width="5"/><text fill="rgb(0,0,0)" stroke="none" font-family="Avenir, Helvetica, Arial, sans-serif" font-size="32px" font-style="normal" font-weight="bold" text-decoration="normal" x="3246.0885306430246" y="-1032.1144448558393" text-anchor="middle" dominant-baseline="text-after-edge" fill-opacity="1">kubernetes-master_vm</text><path fill="rgb(255,255,255)" stroke="rgb(211,211,211)" paint-order="fill stroke markers" d=" M 2042.888529927768 -1287.3144448558385 L 2308.888529927768 -1287.3144448558385 L 2308.888529927768 -1287.3144448558385 A 8 8 0 0 1 2316.888529927768 -1279.3144448558385 L 2316.888529927768 -1217.3144448558385 L 2316.888529927768 -1217.3144448558385 A 8 8 0 0 1 2308.888529927768 -1209.3144448558385 L 1776.888529927768 -1209.3144448558385 L 1776.888529927768 -1209.3144448558385 A 8 8 0 0 1 1768.888529927768 -1217.3144448558385 L 1768.888529927768 -1279.3144448558385 L 1768.888529927768 -1279.3144448558385 A 8 8 0 0 1 1776.888529927768 -1287.3144448558385 L 2042.888529927768 -1287.3144448558385 Z" fill-opacity="1" stroke-opacity="1" stroke-miterlimit="10" stroke-width="5"/><text fill="rgb(0,0,0)" stroke="none" font-family="Avenir, Helvetica, Arial, sans-serif" font-size="32px" font-style="normal" font-weight="bold" text-decoration="normal" x="2042.888529927768" y="-1232.3144448558385" text-anchor="middle" dominant-baseline="text-after-edge" fill-opacity="1">talos_kubernetes_setup</text><path fill="rgb(225,240,255)" stroke="rgb(29,122,218)" paint-order="fill stroke markers" d=" M 1357.8885299277686 -1653.3144462863506 L 1623.8885299277686 -1653.3144462863506 L 1623.8885299277686 -1653.3144462863506 A 8 8 0 0 1 1631.8885299277686 -1645.3144462863506 L 1631.8885299277686 -1583.3144462863506 L 1631.8885299277686 -1583.3144462863506 A 8 8 0 0 1 1623.8885299277686 -1575.3144462863506 L 1091.8885299277686 -1575.3144462863506 L 1091.8885299277686 -1575.3144462863506 A 8 8 0 0 1 1083.8885299277686 -1583.3144462863506 L 1083.8885299277686 -1645.3144462863506 L 1083.8885299277686 -1645.3144462863506 A 8 8 0 0 1 1091.8885299277686 -1653.3144462863506 L 1357.8885299277686 -1653.3144462863506 Z" fill-opacity="1" stroke-opacity="1" stroke-miterlimit="10" stroke-width="5"/><text fill="rgb(0,0,0)" stroke="none" font-family="Avenir, Helvetica, Arial, sans-serif" font-size="32px" font-style="normal" font-weight="bold" text-decoration="normal" x="1357.8885299277686" y="-1598.3144462863506" text-anchor="middle" dominant-baseline="text-after-edge" fill-opacity="1">talos</text><path fill="rgb(255,255,255)" stroke="rgb(211,211,211)" paint-order="fill stroke markers" d=" M 1457.8885299277686 -1287.3144448558385 L 1723.8885299277686 -1287.3144448558385 L 1723.8885299277686 -1287.3144448558385 A 8 8 0 0 1 1731.8885299277686 -1279.3144448558385 L 1731.8885299277686 -1217.3144448558385 L 1731.8885299277686 -1217.3144448558385 A 8 8 0 0 1 1723.8885299277686 -1209.3144448558385 L 1191.8885299277686 -1209.3144448558385 L 1191.8885299277686 -1209.3144448558385 A 8 8 0 0 1 1183.8885299277686 -1217.3144448558385 L 1183.8885299277686 -1279.3144448558385 L 1183.8885299277686 -1279.3144448558385 A 8 8 0 0 1 1191.8885299277686 -1287.3144448558385 L 1457.8885299277686 -1287.3144448558385 Z" fill-opacity="1" stroke-opacity="1" stroke-miterlimit="10" stroke-width="5"/><text fill="rgb(0,0,0)" stroke="none" font-family="Avenir, Helvetica, Arial, sans-serif" font-size="32px" font-style="normal" font-weight="bold" text-decoration="normal" x="1457.8885299277686" y="-1232.3144448558385" text-anchor="middle" dominant-baseline="text-after-edge" fill-opacity="1">delay</text><path fill="rgb(255,255,255)" stroke="rgb(211,211,211)" paint-order="fill stroke markers" d=" M 1457.8885299277686 -1420.3144455710942 L 1723.8885299277686 -1420.3144455710942 L 1723.8885299277686 -1420.3144455710942 A 8 8 0 0 1 1731.8885299277686 -1412.3144455710942 L 1731.8885299277686 -1350.3144455710942 L 1731.8885299277686 -1350.3144455710942 A 8 8 0 0 1 1723.8885299277686 -1342.3144455710942 L 1191.8885299277686 -1342.3144455710942 L 1191.8885299277686 -1342.3144455710942 A 8 8 0 0 1 1183.8885299277686 -1350.3144455710942 L 1183.8885299277686 -1412.3144455710942 L 1183.8885299277686 -1412.3144455710942 A 8 8 0 0 1 1191.8885299277686 -1420.3144455710942 L 1457.8885299277686 -1420.3144455710942 Z" fill-opacity="1" stroke-opacity="1" stroke-miterlimit="10" stroke-width="5"/><text fill="rgb(0,0,0)" stroke="none" font-family="Avenir, Helvetica, Arial, sans-serif" font-size="32px" font-style="normal" font-weight="bold" text-decoration="normal" x="1457.8885299277686" y="-1365.3144455710942" text-anchor="middle" dominant-baseline="text-after-edge" fill-opacity="1">talos_kubeconfig</text><path fill="rgb(225,240,255)" stroke="rgb(29,122,218)" paint-order="fill stroke markers" d=" M -1043.5114715027446 -1653.3144462863506 L -777.5114715027446 -1653.3144462863506 L -777.5114715027446 -1653.3144462863506 A 8 8 0 0 1 -769.5114715027446 -1645.3144462863506 L -769.5114715027446 -1583.3144462863506 L -769.5114715027446 -1583.3144462863506 A 8 8 0 0 1 -777.5114715027446 -1575.3144462863506 L -1309.5114715027446 -1575.3144462863506 L -1309.5114715027446 -1575.3144462863506 A 8 8 0 0 1 -1317.5114715027446 -1583.3144462863506 L -1317.5114715027446 -1645.3144462863506 L -1317.5114715027446 -1645.3144462863506 A 8 8 0 0 1 -1309.5114715027446 -1653.3144462863506 L -1043.5114715027446 -1653.3144462863506 Z" fill-opacity="1" stroke-opacity="1" stroke-miterlimit="10" stroke-width="5"/><text fill="rgb(0,0,0)" stroke="none" font-family="Avenir, Helvetica, Arial, sans-serif" font-size="32px" font-style="normal" font-weight="bold" text-decoration="normal" x="-1043.5114715027446" y="-1598.3144462863506" text-anchor="middle" dominant-baseline="text-after-edge" fill-opacity="1">pfsense</text><path fill="rgb(225,240,255)" stroke="rgb(29,122,218)" paint-order="fill stroke markers" d=" M -1043.5114715027446 -1520.3144455710944 L -777.5114715027446 -1520.3144455710944 L -777.5114715027446 -1520.3144455710944 A 8 8 0 0 1 -769.5114715027446 -1512.3144455710944 L -769.5114715027446 -1450.3144455710944 L -769.5114715027446 -1450.3144455710944 A 8 8 0 0 1 -777.5114715027446 -1442.3144455710944 L -1309.5114715027446 -1442.3144455710944 L -1309.5114715027446 -1442.3144455710944 A 8 8 0 0 1 -1317.5114715027446 -1450.3144455710944 L -1317.5114715027446 -1512.3144455710944 L -1317.5114715027446 -1512.3144455710944 A 8 8 0 0 1 -1309.5114715027446 -1520.3144455710944 L -1043.5114715027446 -1520.3144455710944 Z" fill-opacity="1" stroke-opacity="1" stroke-miterlimit="10" stroke-width="5"/><text fill="rgb(0,0,0)" stroke="none" font-family="Avenir, Helvetica, Arial, sans-serif" font-size="32px" font-style="normal" font-weight="bold" text-decoration="normal" x="-1043.5114715027446" y="-1465.3144455710944" text-anchor="middle" dominant-baseline="text-after-edge" fill-opacity="1">proxmox_config</text><path fill="rgb(255,193,7)" stroke="none" paint-order="stroke fill markers" d=" M -943.511471502745 -1287.3144448558385 L -677.511471502745 -1287.3144448558385 L -677.511471502745 -1287.3144448558385 A 8 8 0 0 1 -669.511471502745 -1279.3144448558385 L -669.511471502745 -1217.3144448558385 L -669.511471502745 -1217.3144448558385 A 8 8 0 0 1 -677.511471502745 -1209.3144448558385 L -1209.511471502745 -1209.3144448558385 L -1209.511471502745 -1209.3144448558385 A 8 8 0 0 1 -1217.511471502745 -1217.3144448558385 L -1217.511471502745 -1279.3144448558385 L -1217.511471502745 -1279.3144448558385 A 8 8 0 0 1 -1209.511471502745 -1287.3144448558385 L -943.511471502745 -1287.3144448558385 Z" fill-opacity="1"/><text fill="rgb(0,0,0)" stroke="none" font-family="Avenir, Helvetica, Arial, sans-serif" font-size="32px" font-style="normal" font-weight="bold" text-decoration="normal" x="-943.511471502745" y="-1232.3144448558385" text-anchor="middle" dominant-baseline="text-after-edge" fill-opacity="1">ubuntu-server_vm</text><path fill="rgb(40,167,69)" stroke="none" paint-order="stroke fill markers" d=" M -943.511471502745 -1159.3144441405827 L -677.511471502745 -1159.3144441405827 L -677.511471502745 -1159.3144441405827 A 8 8 0 0 1 -669.511471502745 -1151.3144441405827 L -669.511471502745 -1089.3144441405827 L -669.511471502745 -1089.3144441405827 A 8 8 0 0 1 -677.511471502745 -1081.3144441405827 L -1209.511471502745 -1081.3144441405827 L -1209.511471502745 -1081.3144441405827 A 8 8 0 0 1 -1217.511471502745 -1089.3144441405827 L -1217.511471502745 -1151.3144441405827 L -1217.511471502745 -1151.3144441405827 A 8 8 0 0 1 -1209.511471502745 -1159.3144441405827 L -943.511471502745 -1159.3144441405827 Z" fill-opacity="1"/><text fill="rgb(255,255,255)" stroke="none" font-family="Avenir, Helvetica, Arial, sans-serif" font-size="32px" font-style="normal" font-weight="bold" text-decoration="normal" x="-943.511471502745" y="-1104.3144441405827" text-anchor="middle" dominant-baseline="text-after-edge" fill-opacity="1">pfsense_vm</text><path fill="rgb(255,193,7)" stroke="none" paint-order="stroke fill markers" d=" M 254.68852921251187 -1287.3144448558385 L 520.6885292125119 -1287.3144448558385 L 520.6885292125119 -1287.3144448558385 A 8 8 0 0 1 528.6885292125119 -1279.3144448558385 L 528.6885292125119 -1217.3144448558385 L 528.6885292125119 -1217.3144448558385 A 8 8 0 0 1 520.6885292125119 -1209.3144448558385 L -11.311470787488133 -1209.3144448558385 L -11.311470787488133 -1209.3144448558385 A 8 8 0 0 1 -19.311470787488133 -1217.3144448558385 L -19.311470787488133 -1279.3144448558385 L -19.311470787488133 -1279.3144448558385 A 8 8 0 0 1 -11.311470787488133 -1287.3144448558385 L 254.68852921251187 -1287.3144448558385 Z" fill-opacity="1"/><text fill="rgb(0,0,0)" stroke="none" font-family="Avenir, Helvetica, Arial, sans-serif" font-size="32px" font-style="normal" font-weight="bold" text-decoration="normal" x="254.68852921251187" y="-1232.3144448558385" text-anchor="middle" dominant-baseline="text-after-edge" fill-opacity="1">packer_pfsense_template</text><path fill="rgb(255,193,7)" stroke="none" paint-order="stroke fill markers" d=" M 254.68852921251187 -1159.3144441405827 L 520.6885292125119 -1159.3144441405827 L 520.6885292125119 -1159.3144441405827 A 8 8 0 0 1 528.6885292125119 -1151.3144441405827 L 528.6885292125119 -1089.3144441405827 L 528.6885292125119 -1089.3144441405827 A 8 8 0 0 1 520.6885292125119 -1081.3144441405827 L -11.311470787488133 -1081.3144441405827 L -11.311470787488133 -1081.3144441405827 A 8 8 0 0 1 -19.311470787488133 -1089.3144441405827 L -19.311470787488133 -1151.3144441405827 L -19.311470787488133 -1151.3144441405827 A 8 8 0 0 1 -11.311470787488133 -1159.3144441405827 L 254.68852921251187 -1159.3144441405827 Z" fill-opacity="1"/><text fill="rgb(0,0,0)" stroke="none" font-family="Avenir, Helvetica, Arial, sans-serif" font-size="32px" font-style="normal" font-weight="bold" text-decoration="normal" x="254.68852921251187" y="-1104.3144441405827" text-anchor="middle" dominant-baseline="text-after-edge" fill-opacity="1">packer_ubuntu_template</text><path fill="rgb(255,255,255)" stroke="rgb(211,211,211)" paint-order="fill stroke markers" d=" M 254.68852921251187 -1031.314443425327 L 520.6885292125119 -1031.314443425327 L 520.6885292125119 -1031.314443425327 A 8 8 0 0 1 528.6885292125119 -1023.314443425327 L 528.6885292125119 -961.314443425327 L 528.6885292125119 -961.314443425327 A 8 8 0 0 1 520.6885292125119 -953.314443425327 L -11.311470787488133 -953.314443425327 L -11.311470787488133 -953.314443425327 A 8 8 0 0 1 -19.311470787488133 -961.314443425327 L -19.311470787488133 -1023.314443425327 L -19.311470787488133 -1023.314443425327 A 8 8 0 0 1 -11.311470787488133 -1031.314443425327 L 254.68852921251187 -1031.314443425327 Z" fill-opacity="1" stroke-opacity="1" stroke-miterlimit="10" stroke-width="5"/><text fill="rgb(0,0,0)" stroke="none" font-family="Avenir, Helvetica, Arial, sans-serif" font-size="32px" font-style="normal" font-weight="bold" text-decoration="normal" x="254.68852921251187" y="-976.314443425327" text-anchor="middle" dominant-baseline="text-after-edge" fill-opacity="1">pfsense_base_image</text><path fill="rgb(225,240,255)" stroke="rgb(29,122,218)" paint-order="fill stroke markers" d=" M 154.68852921251175 -1653.3144462863506 L 420.68852921251175 -1653.3144462863506 L 420.68852921251175 -1653.3144462863506 A 8 8 0 0 1 428.68852921251175 -1645.3144462863506 L 428.68852921251175 -1583.3144462863506 L 428.68852921251175 -1583.3144462863506 A 8 8 0 0 1 420.68852921251175 -1575.3144462863506 L -111.31147078748825 -1575.3144462863506 L -111.31147078748825 -1575.3144462863506 A 8 8 0 0 1 -119.31147078748825 -1583.3144462863506 L -119.31147078748825 -1645.3144462863506 L -119.31147078748825 -1645.3144462863506 A 8 8 0 0 1 -111.31147078748825 -1653.3144462863506 L 154.68852921251175 -1653.3144462863506 Z" fill-opacity="1" stroke-opacity="1" stroke-miterlimit="10" stroke-width="5"/><text fill="rgb(0,0,0)" stroke="none" font-family="Avenir, Helvetica, Arial, sans-serif" font-size="32px" font-style="normal" font-weight="bold" text-decoration="normal" x="154.68852921251175" y="-1598.3144462863506" text-anchor="middle" dominant-baseline="text-after-edge" fill-opacity="1">pfsense</text><path fill="rgb(225,240,255)" stroke="rgb(29,122,218)" paint-order="fill stroke markers" d=" M 154.68852921251175 -1520.3144455710944 L 420.68852921251175 -1520.3144455710944 L 420.68852921251175 -1520.3144455710944 A 8 8 0 0 1 428.68852921251175 -1512.3144455710944 L 428.68852921251175 -1450.3144455710944 L 428.68852921251175 -1450.3144455710944 A 8 8 0 0 1 420.68852921251175 -1442.3144455710944 L -111.31147078748825 -1442.3144455710944 L -111.31147078748825 -1442.3144455710944 A 8 8 0 0 1 -119.31147078748825 -1450.3144455710944 L -119.31147078748825 -1512.3144455710944 L -119.31147078748825 -1512.3144455710944 A 8 8 0 0 1 -111.31147078748825 -1520.3144455710944 L 154.68852921251175 -1520.3144455710944 Z" fill-opacity="1" stroke-opacity="1" stroke-miterlimit="10" stroke-width="5"/><text fill="rgb(0,0,0)" stroke="none" font-family="Avenir, Helvetica, Arial, sans-serif" font-size="32px" font-style="normal" font-weight="bold" text-decoration="normal" x="154.68852921251175" y="-1465.3144455710944" text-anchor="middle" dominant-baseline="text-after-edge" fill-opacity="1">proxmox_config</text><g transform="scale(5,5) translate(-325.80229430054897,-392.9628892572703)"/></g></svg>